<?xml version="1.0" standalone="no"?>
<!DOCTYPE svg PUBLIC "-//W3C//DTD SVG 20010904//EN"
 "http://www.w3.org/TR/2001/REC-SVG-20010904/DTD/svg10.dtd">
<svg version="1.0" xmlns="http://www.w3.org/2000/svg"
 width="772.000000pt" height="772.000000pt" viewBox="0 0 772.000000 772.000000"
 preserveAspectRatio="xMidYMid meet">
<metadata>
Created by potrace 1.11, written by Peter Selinger 2001-2013
</metadata>
<g transform="translate(0.000000,772.000000) scale(0.100000,-0.100000)"
fill="#000000" stroke="none">
<path d="M3758 7105 c-2 -2 -46 -6 -98 -9 -528 -32 -1010 -193 -1390 -464
-570 -406 -941 -1134 -1059 -2077 -36 -284 -41 -370 -46 -702 -2 -138 -6 -256
-9 -261 -3 -6 -28 -15 -56 -22 -48 -12 -54 -18 -53 -57 1 -28 25 -246 48 -443
2 -19 9 -82 15 -140 6 -58 13 -118 15 -135 2 -16 7 -57 10 -90 4 -33 8 -71 10
-85 4 -26 6 -48 30 -280 15 -144 22 -207 30 -265 2 -16 7 -59 11 -95 3 -36 10
-69 15 -75 6 -6 61 -5 151 3 78 6 146 8 151 3 4 -4 35 -57 68 -117 218 -391
472 -665 809 -869 420 -255 921 -379 1525 -378 881 1 1571 281 2029 822 209
248 378 552 485 873 12 36 28 72 36 78 8 6 69 28 137 49 l123 38 0 69 c0 62
-6 139 -20 244 -3 19 -7 58 -10 85 -2 28 -7 68 -10 90 -6 40 -8 59 -20 190 -4
39 -10 93 -14 121 -4 28 -4 84 1 125 30 269 20 949 -17 1184 -63 395 -90 527
-156 744 -104 349 -267 680 -457 930 -80 105 -256 286 -365 374 -284 229 -628
388 -1014 467 -132 28 -350 60 -448 67 -95 6 -452 12 -457 8z m592 -70 c605
-70 1092 -289 1459 -653 471 -469 749 -1187 821 -2121 5 -74 9 -250 9 -390
l-1 -256 -14 105 c-7 58 -18 206 -23 330 -25 522 -89 905 -216 1287 -318 952
-954 1492 -1935 1643 -420 65 -935 43 -1332 -56 -673 -169 -1167 -564 -1477
-1182 -256 -511 -390 -1177 -391 -1939 0 -101 -2 -183 -4 -183 -2 0 -11 -3
-20 -6 -14 -5 -16 15 -16 182 0 447 48 884 135 1240 308 1253 1076 1923 2311
2014 162 12 529 4 694 -15z m-501 -191 c47 -60 33 -189 -22 -207 -72 -23 -113
30 -105 137 4 46 9 63 27 77 33 27 75 24 100 -7z m194 -5 c31 -39 20 -167 -17
-191 -6 -4 -35 -8 -63 -8 l-53 0 0 54 c0 29 3 81 7 116 l6 62 51 -6 c35 -4 57
-12 69 -27z m-393 11 c15 -8 46 -70 35 -70 -2 0 -10 -3 -18 -6 -10 -3 -17 3
-21 19 -7 31 -28 40 -52 22 -15 -10 -18 -25 -16 -66 3 -66 9 -86 27 -93 23 -9
45 4 51 30 8 32 34 31 34 -1 0 -50 -61 -81 -110 -55 -24 13 -40 62 -40 127 0
44 5 58 25 78 25 26 54 31 85 15z m558 4 c12 -4 22 -13 22 -21 0 -12 -9 -14
-45 -9 l-45 7 0 -35 c0 -34 2 -36 35 -36 24 0 35 -5 35 -15 0 -11 -11 -15 -40
-15 -39 0 -40 -1 -40 -35 0 -35 0 -35 45 -35 34 0 45 -4 45 -15 0 -13 -11 -15
-62 -13 l-63 3 3 95 c4 127 6 130 50 130 20 0 47 -3 60 -6z m234 -31 c21 -19
24 -53 4 -53 -7 0 -16 9 -19 21 -8 29 -41 21 -45 -11 -1 -14 9 -43 23 -65 23
-37 25 -39 31 -17 3 12 13 22 21 22 12 0 13 -6 7 -27 -4 -16 -8 -42 -8 -60 l0
-31 -59 2 c-45 2 -64 8 -74 21 -19 27 -16 68 7 98 11 14 20 40 20 59 0 19 5
39 12 46 17 17 58 15 80 -5z m-1100 -30 c10 -9 18 -22 18 -30 0 -18 -25 -17
-40 2 -17 21 -54 15 -58 -9 -5 -23 23 -46 55 -46 29 0 73 -42 73 -70 0 -56
-102 -84 -134 -38 -9 12 -16 26 -16 30 0 15 38 8 44 -8 4 -10 15 -14 33 -12
55 6 33 68 -24 68 -29 0 -73 42 -73 70 0 50 82 80 122 43z m1326 -8 c41 -13
53 -21 58 -41 7 -28 -9 -74 -26 -74 -6 0 -6 -7 2 -19 8 -13 9 -29 2 -52 -8
-28 -15 -35 -41 -37 -17 -2 -49 2 -71 8 l-40 10 24 98 c27 107 32 122 37 122
2 0 27 -7 55 -15z m-1494 -50 c22 -34 40 -117 32 -148 -5 -23 -49 -48 -104
-59 -15 -3 -75 186 -67 209 4 13 31 20 86 22 29 1 40 -4 53 -24z m1695 -10
c35 -12 54 -35 29 -35 -7 0 -28 4 -46 9 -30 9 -34 8 -43 -15 -12 -32 -6 -41
32 -49 16 -4 28 -12 26 -18 -5 -13 -20 -14 -53 -3 -18 5 -24 1 -33 -25 -6 -18
-11 -33 -11 -34 0 -1 18 -7 40 -14 23 -7 40 -18 40 -26 0 -19 -2 -19 -67 2
-29 9 -53 21 -53 27 0 5 14 54 32 108 35 108 26 101 107 73z m-1894 -32 c24
-23 37 -63 30 -91 -5 -19 1 -32 22 -54 23 -24 25 -30 13 -38 -11 -7 -24 -1
-46 21 -23 22 -38 29 -52 25 -20 -7 -20 -9 -6 -43 13 -29 13 -37 2 -44 -7 -5
-16 -5 -19 -1 -16 18 -78 197 -71 204 9 9 81 36 99 37 6 1 19 -6 28 -16z
m2058 -28 c25 -10 35 -20 31 -30 -5 -12 -11 -12 -45 2 -45 18 -45 18 -54 -18
-5 -22 -2 -28 24 -39 17 -7 31 -16 31 -20 0 -16 -15 -18 -45 -6 -31 13 -33 13
-44 -10 -17 -37 -14 -42 29 -61 28 -13 37 -22 31 -31 -6 -10 -20 -8 -64 12
l-56 24 41 102 c45 112 40 109 121 75z m-2233 -30 c0 -8 -15 -22 -32 -31 -18
-9 -34 -18 -36 -19 -5 -4 21 -55 27 -55 3 1 17 7 31 15 32 18 40 18 40 1 0 -7
-13 -19 -30 -26 -35 -14 -34 -12 -15 -51 l16 -29 38 20 c36 18 51 18 51 -1 0
-8 -92 -59 -105 -59 -6 0 -79 145 -89 177 -6 19 0 26 41 47 57 30 63 31 63 11z
m650 -25 c0 -29 -4 -40 -15 -40 -10 0 -15 10 -15 33 0 19 3 37 7 40 15 16 23
5 23 -33z m1720 -10 c55 -28 66 -52 43 -98 -10 -20 -28 -41 -40 -47 -16 -7
-23 -18 -23 -37 0 -39 -10 -58 -27 -51 -12 5 -13 16 -8 51 5 32 3 47 -7 53
-21 14 -27 11 -43 -21 -15 -29 -45 -42 -45 -19 0 18 91 189 101 189 6 0 27 -9
49 -20z m-2486 -130 c79 -124 65 -141 -54 -65 -39 25 -72 45 -75 45 -3 0 15
-30 39 -67 24 -38 42 -71 39 -75 -12 -20 -32 0 -81 79 -76 124 -59 145 55 68
37 -24 69 -43 71 -40 2 2 -15 31 -38 64 -37 55 -44 81 -21 81 5 0 34 -40 65
-90z m1306 -7 c-19 -9 -69 -17 -110 -19 -220 -9 -641 -63 -690 -89 -15 -8 -74
-32 -131 -53 -240 -90 -402 -193 -575 -366 -275 -275 -464 -673 -569 -1196
-47 -239 -85 -621 -85 -867 0 -57 -2 -103 -4 -103 -2 0 -11 -3 -20 -6 -14 -5
-16 7 -16 97 0 352 53 783 135 1094 74 283 196 571 325 762 339 506 880 754
1655 760 116 1 119 1 85 -14z m294 -15 c27 -10 62 -28 77 -39 15 -10 34 -19
42 -19 28 0 28 -32 0 -74 l-27 -41 -10 33 c-8 28 -13 32 -30 27 -47 -15 -107
-23 -208 -29 -94 -6 -108 -5 -108 9 0 9 12 18 30 22 17 3 30 9 30 14 0 5 8 9
18 10 10 0 12 2 4 6 -18 7 -102 -34 -102 -51 0 -17 -120 -33 -129 -17 -4 6
-12 7 -21 1 -19 -12 -253 -13 -246 -1 4 5 30 12 59 16 28 4 91 24 138 46 116
53 219 88 304 104 78 14 107 11 179 -17z m251 -30 c332 -67 639 -225 859 -443
383 -379 612 -1011 662 -1832 7 -108 6 -113 -13 -113 -18 0 -21 11 -31 163
-58 812 -290 1424 -676 1784 -88 82 -250 195 -355 247 -132 67 -296 120 -523
171 -47 11 -84 26 -95 38 -18 19 -17 19 27 12 25 -4 90 -16 145 -27z m-718
-22 c-10 -8 -63 -16 -135 -20 -110 -7 -440 -51 -450 -60 -22 -22 195 -46 421
-46 157 0 447 14 587 29 115 12 117 10 112 -96 -2 -48 -1 -85 2 -82 12 11 36
113 31 129 -3 10 11 32 35 55 l40 39 0 -44 c0 -25 -7 -104 -14 -175 -9 -86
-10 -149 -4 -185 26 -161 23 -216 -22 -401 -47 -196 -60 -236 -70 -219 -9 15
-15 -10 -29 -115 -26 -196 -41 -378 -42 -519 -1 -165 -11 -150 -24 34 -5 80
-2 128 10 200 12 64 18 159 20 290 1 157 5 202 18 232 10 21 17 63 17 95 1 32
7 76 15 98 20 55 19 154 -1 184 -9 12 -22 55 -29 94 -18 100 -18 55 1 -83 8
-66 12 -130 8 -150 -5 -19 -7 -65 -5 -102 2 -54 -1 -74 -17 -100 -38 -62 -52
-241 -56 -716 -3 -342 -2 -433 9 -442 9 -8 17 -3 31 17 16 25 18 56 19 313 1
238 5 313 24 455 13 94 27 174 32 180 14 14 11 -35 -11 -195 -31 -226 -36
-426 -15 -613 14 -128 15 -163 5 -187 -16 -38 -76 -93 -137 -124 -59 -29 -182
-67 -220 -66 -15 0 -59 0 -98 1 -38 0 -71 2 -73 4 -3 2 -7 19 -11 37 -5 23
-13 34 -28 36 -18 3 -22 -3 -26 -30 l-3 -33 -8 33 c-10 38 -36 43 -36 7 0 -40
-17 -29 -24 15 -3 22 -8 40 -10 40 -3 0 -12 3 -21 7 -15 5 -16 1 -10 -35 5
-34 4 -42 -8 -42 -24 0 -28 27 -26 197 1 125 -7 239 -40 543 -22 212 -45 401
-51 421 -5 20 -10 56 -10 79 0 24 -11 107 -25 184 -48 273 -78 588 -60 634 6
16 7 16 17 -1 12 -22 40 -275 33 -298 -3 -9 4 -58 15 -108 11 -50 20 -118 20
-151 0 -34 7 -91 15 -128 8 -37 20 -123 26 -192 11 -123 19 -197 39 -362 5
-46 12 -128 15 -182 3 -55 9 -104 14 -109 4 -4 6 -28 3 -52 -2 -24 3 -87 13
-139 12 -72 14 -99 5 -115 -8 -16 -8 -31 1 -59 10 -34 17 -40 58 -52 50 -16
233 -20 294 -7 35 7 37 10 37 47 0 21 7 45 15 53 29 29 2 535 -44 832 -15 91
-18 151 -14 245 4 102 3 123 -8 113 -16 -16 -16 -374 0 -443 14 -60 14 -127 0
-113 -5 5 -16 70 -24 144 -8 74 -19 150 -24 169 -6 19 -11 60 -12 90 -1 63
-11 101 -23 82 -4 -7 0 -68 9 -135 9 -68 15 -141 13 -162 l-4 -40 -6 35 c-20
109 -41 281 -39 320 2 53 -29 210 -43 210 -5 0 -7 -60 -4 -140 4 -117 7 -143
23 -160 16 -18 17 -24 5 -59 -7 -22 -10 -52 -6 -68 4 -15 10 -93 12 -173 5
-121 9 -150 25 -177 16 -26 18 -36 9 -53 -8 -15 -8 -46 0 -115 6 -51 11 -122
10 -157 0 -35 2 -83 5 -108 3 -25 6 -52 7 -60 0 -8 0 -46 0 -84 -2 -57 -4 -67
-16 -57 -13 11 -28 103 -26 161 4 138 -5 352 -15 388 -8 24 -11 58 -8 75 6 39
-13 263 -24 280 -4 7 -8 30 -8 52 -1 22 -6 81 -13 130 -6 50 -16 132 -21 184
-6 52 -14 98 -20 104 -14 14 -23 -27 -12 -57 7 -17 7 -35 0 -52 -7 -21 -6 -32
7 -52 14 -21 14 -30 4 -62 -9 -27 -9 -43 -1 -58 6 -11 11 -37 11 -59 0 -84 6
-139 19 -161 9 -16 10 -40 6 -74 -4 -28 0 -134 9 -237 8 -102 20 -269 25 -369
6 -101 15 -189 20 -196 14 -16 4 -26 -25 -26 -32 0 -38 16 -24 60 9 29 10 68
1 176 -5 76 -10 146 -10 154 2 130 -14 320 -33 394 -5 21 -9 75 -9 120 1 45
-3 108 -8 141 -6 33 -15 101 -21 150 -7 50 -16 98 -21 107 -5 10 -6 23 -4 31
3 7 -1 29 -9 48 l-15 34 -3 -45 c-4 -89 4 -185 18 -208 11 -16 12 -27 4 -41
-15 -29 -12 -62 7 -83 15 -16 15 -23 4 -54 -11 -31 -11 -38 4 -55 14 -14 15
-22 6 -32 -8 -11 -5 -68 13 -238 30 -273 56 -561 56 -611 0 -36 -2 -38 -30
-38 l-30 0 15 36 c8 20 12 40 9 45 -2 5 -7 84 -9 176 -2 93 -11 222 -19 288
-9 66 -20 177 -26 248 -6 70 -16 139 -22 155 -11 26 -17 76 -36 293 -9 101
-22 149 -42 149 -21 0 -19 -42 5 -108 18 -49 23 -77 17 -93 -5 -13 -3 -55 4
-102 7 -44 18 -141 24 -216 15 -185 48 -556 60 -668 15 -143 13 -193 -7 -193
-16 0 -18 14 -20 133 -2 186 -28 477 -84 947 -6 47 -14 114 -18 150 -4 36 -16
83 -27 105 -16 33 -19 65 -19 190 -1 125 -5 163 -24 228 -16 57 -22 98 -19
149 l3 71 -64 3 -63 4 6 -33 c4 -17 11 -75 16 -127 5 -52 16 -131 25 -175 10
-52 13 -106 9 -155 -5 -63 -1 -89 20 -159 14 -47 26 -94 26 -105 0 -18 -4 -16
-21 11 -26 41 -45 152 -59 336 -5 80 -17 177 -25 217 -8 39 -15 95 -15 125 0
81 -3 85 -71 85 -50 0 -59 3 -59 18 0 30 41 59 100 71 103 20 363 46 480 49
56 1 63 0 47 -12z m-104 -47 c-22 -22 -403 -63 -390 -42 5 9 65 20 247 47 62
9 154 6 143 -5z m954 -65 c186 -56 364 -140 488 -232 45 -33 48 -37 26 -40
-14 -2 -33 6 -50 21 -20 19 -34 23 -61 20 -32 -3 -37 0 -62 42 -22 36 -33 45
-54 45 -15 0 -36 8 -46 17 -27 24 -50 7 -60 -43 -16 -82 -29 -113 -49 -119
-18 -6 -20 -12 -14 -43 6 -30 3 -38 -20 -56 l-26 -21 20 -48 c25 -58 26 -71 6
-87 -19 -16 -19 -50 -1 -76 10 -14 11 -23 4 -32 -8 -9 -7 -19 2 -36 9 -18 9
-29 1 -44 -27 -50 0 -96 85 -144 30 -16 59 -39 65 -49 10 -20 3 -26 -101 -92
-19 -13 -36 -32 -38 -43 -2 -11 -21 -29 -48 -43 -46 -25 -114 -92 -114 -114 0
-6 5 -19 10 -27 6 -10 2 -28 -15 -59 -28 -49 -31 -72 -13 -104 7 -12 12 -40
13 -62 0 -36 3 -41 33 -51 18 -6 39 -21 45 -35 11 -20 23 -25 82 -33 51 -7 74
-15 84 -29 12 -17 23 -19 91 -14 43 3 106 14 141 25 35 12 81 24 103 27 29 5
52 20 92 60 34 33 64 55 81 57 46 5 55 37 50 175 -4 110 -3 123 14 139 15 13
19 14 19 3 0 -8 27 -67 60 -133 33 -65 60 -127 60 -137 0 -26 -60 -68 -112
-78 -90 -16 -247 -117 -328 -211 -44 -50 -49 -61 -39 -77 9 -15 5 -36 -20
-110 -38 -110 -43 -212 -12 -220 15 -4 19 -17 24 -72 7 -86 23 -121 59 -128
15 -3 28 -9 28 -14 0 -11 -25 -17 -116 -24 l-80 -7 -75 94 c-169 213 -418 553
-479 654 l-65 108 0 86 c0 83 2 89 36 141 58 87 69 114 79 194 7 51 24 108 55
179 25 57 45 116 45 130 0 36 -24 79 -57 106 -27 21 -28 24 -25 110 2 57 -3
119 -13 172 -18 88 -17 169 6 340 l12 87 31 -6 c17 -3 82 -21 143 -39z m-1479
-141 c17 -105 22 -175 21 -293 -1 -143 1 -160 24 -223 l25 -68 -27 -13 c-72
-38 -95 -94 -81 -204 8 -61 15 -81 37 -104 l26 -28 -27 -50 c-21 -39 -30 -74
-38 -150 -10 -94 -9 -101 12 -137 16 -28 20 -47 16 -74 -3 -22 0 -52 9 -75 11
-30 14 -33 13 -14 -2 46 2 70 12 70 6 0 10 -16 10 -35 0 -35 13 -47 24 -22 4
6 4 -5 2 -25 -5 -41 9 -61 19 -28 3 11 11 20 16 20 12 0 11 -12 -1 -45 -7 -18
-6 -30 1 -38 5 -7 19 -26 29 -44 24 -41 63 -66 89 -58 23 7 61 64 61 91 0 11
5 26 10 34 17 25 29 -7 24 -62 -6 -80 -47 -119 -108 -104 -33 8 -114 94 -154
164 -32 54 -35 38 -5 -21 12 -23 12 -38 2 -81 -15 -70 6 -149 56 -201 30 -33
39 -37 74 -33 39 3 40 3 46 -34 18 -102 183 -177 443 -201 l125 -12 35 -98
c20 -56 31 -101 26 -106 -5 -4 -371 -42 -814 -85 -443 -42 -817 -79 -832 -82
l-28 -6 0 122 c0 111 -1 121 -17 116 -33 -10 -440 -116 -447 -116 -8 0 -8 203
1 348 7 132 17 146 65 88 29 -36 31 -36 49 -20 19 17 22 16 72 -34 54 -53 73
-61 106 -40 16 10 25 6 61 -25 24 -20 63 -44 87 -53 41 -16 44 -16 62 0 18 16
21 16 51 1 21 -11 44 -15 63 -11 23 5 38 0 64 -20 43 -33 153 -55 177 -35 16
14 11 29 -42 113 -15 24 -15 31 -3 60 7 18 14 42 15 53 2 11 6 29 11 39 5 11
3 31 -4 50 -14 34 -15 40 -5 77 4 20 -2 37 -25 69 -26 36 -30 49 -25 77 4 24
1 41 -12 61 -11 15 -21 36 -24 47 -4 12 -24 26 -54 37 -59 21 -74 34 -59 49
17 17 51 5 118 -40 74 -48 103 -58 111 -37 4 11 19 16 45 16 26 0 42 5 45 15
8 20 20 19 54 -6 18 -14 37 -20 50 -16 12 3 37 -1 57 -9 52 -22 67 -13 59 39
-4 23 -16 57 -27 76 l-20 34 21 14 c28 20 25 42 -12 80 -30 31 -31 33 -14 51
16 18 15 21 -19 62 -23 28 -35 52 -35 73 0 17 -8 39 -17 49 -16 18 -16 21 0
51 9 18 21 50 26 72 5 22 17 60 26 84 9 25 14 55 10 68 -3 13 3 38 15 60 31
58 27 97 -13 127 -19 15 -39 26 -45 26 -29 0 -61 24 -64 49 -3 25 -7 26 -78
35 -45 5 -79 14 -85 23 -7 9 -36 17 -73 20 -71 7 -73 11 -38 82 24 47 54 177
43 188 -14 13 -27 -13 -27 -55 0 -48 -31 -132 -49 -132 -5 0 -3 21 5 47 22 72
11 75 -16 4 -15 -40 -26 -59 -33 -52 -6 6 -4 26 7 57 20 59 15 66 -13 19 -12
-21 -26 -33 -32 -29 -22 13 126 145 267 236 78 50 348 175 384 178 3 0 16 -62
28 -137z m27 97 c3 -6 11 -54 16 -108 5 -53 16 -130 24 -170 12 -59 13 -92 5
-165 -6 -50 -13 -93 -15 -96 -3 -2 -5 49 -5 115 0 80 -8 170 -25 272 -14 84
-25 155 -25 157 0 9 19 5 25 -5z m86 -190 c15 -95 21 -171 19 -255 -2 -129 4
-165 51 -288 24 -64 34 -118 54 -295 29 -255 28 -240 12 -222 -9 10 -20 80
-30 190 -17 171 -34 259 -82 410 -24 77 -45 242 -45 359 -1 36 -9 106 -20 156
-14 67 -16 95 -7 110 10 19 11 19 19 -5 4 -14 17 -86 29 -160z m1629 70 c29 0
49 -18 74 -67 14 -29 19 -31 51 -26 28 4 41 1 58 -15 13 -12 39 -22 62 -24 31
-2 41 -8 43 -23 3 -16 1 -18 -9 -7 -7 6 -17 12 -23 12 -13 0 25 -40 38 -40 6
0 27 -28 46 -62 45 -79 60 -88 101 -64 32 19 32 19 24 0 -4 -10 -7 -23 -7 -29
1 -16 23 -109 29 -125 3 -8 5 -23 4 -32 -1 -10 3 -18 8 -18 6 0 11 -8 11 -19
0 -10 7 -24 15 -31 8 -7 15 -21 15 -31 0 -34 18 -29 33 9 18 45 12 59 -16 35
-20 -17 -20 -17 -13 2 5 11 11 29 14 40 5 20 5 20 -16 1 -26 -23 -30 -3 -7 28
19 25 19 40 0 32 -13 -4 -14 2 -9 36 5 30 4 39 -4 34 -8 -5 -10 -2 -6 9 4 8 2
21 -2 28 -5 7 2 0 16 -16 14 -16 43 -56 66 -90 l41 -61 -34 -64 c-18 -35 -33
-74 -33 -88 0 -35 -14 -30 -29 11 -8 23 -20 37 -37 41 -33 8 -38 1 -26 -35 7
-20 7 -31 1 -31 -5 0 -12 14 -16 30 -3 17 -10 33 -14 36 -15 9 -10 -63 5 -76
12 -9 13 -17 4 -36 -6 -13 -14 -24 -18 -24 -3 0 -15 -6 -25 -14 -16 -12 -17
-16 -6 -30 8 -10 9 -16 3 -16 -6 0 -14 5 -17 10 -3 6 -13 10 -22 10 -13 0 -12
-5 7 -25 36 -39 14 -43 -25 -5 -36 34 -43 34 -25 -1 8 -15 7 -19 -4 -19 -9 0
-20 10 -27 21 -7 13 -14 18 -18 11 -4 -7 -19 2 -38 22 l-32 32 89 14 c50 7 98
19 107 26 16 11 18 34 22 171 3 139 1 162 -14 176 -20 21 -39 22 -32 3 3 -7 0
-19 -6 -25 -8 -8 -8 -14 1 -23 8 -8 9 -15 1 -25 -8 -9 -8 -17 0 -27 9 -11 9
-15 -1 -19 -10 -3 -9 -8 3 -23 30 -36 33 -47 11 -40 -18 6 -20 3 -18 -27 2
-19 6 -39 10 -46 4 -6 2 -11 -3 -11 -18 0 -12 -22 11 -47 12 -13 16 -23 10
-23 -20 0 -133 112 -153 152 -11 21 -42 64 -70 94 -57 63 -127 168 -165 246
-17 36 -23 43 -19 23 7 -33 34 -93 65 -143 30 -49 50 -102 39 -102 -5 0 -15
12 -21 28 -11 26 -12 26 -15 5 -6 -32 -19 -28 -26 7 -7 33 -23 40 -29 13 -3
-14 -8 -11 -21 13 -9 18 -27 34 -41 38 -13 3 -31 9 -40 12 -24 9 -19 -18 8
-43 13 -13 28 -23 34 -23 6 0 12 -3 14 -7 6 -14 82 -50 120 -57 45 -8 54 -6
50 14 -4 21 55 -48 78 -92 28 -53 24 -59 -12 -18 -17 19 -28 28 -26 20 3 -8 8
-26 12 -40 7 -24 6 -24 -18 5 -14 17 -26 33 -26 38 0 4 -5 7 -10 7 -6 0 -4
-15 5 -37 20 -48 13 -53 -15 -9 -20 34 -48 51 -37 24 25 -67 17 -77 -13 -18
-21 42 -42 54 -33 20 9 -32 -11 -23 -26 13 -10 24 -15 28 -18 15 -6 -24 -20
-23 -28 2 -10 30 -26 24 -20 -7 5 -25 4 -26 -7 -9 -7 10 -20 27 -28 38 -15 19
-16 19 -15 -4 2 -34 9 -43 62 -71 65 -33 187 -60 240 -52 45 7 83 -7 83 -30 0
-7 12 -28 26 -45 15 -17 23 -34 20 -38 -4 -3 -23 11 -41 33 -37 44 -44 41 -19
-6 21 -41 10 -49 -20 -16 -31 34 -38 34 -26 2 5 -14 6 -25 1 -25 -5 0 -16 11
-25 25 -20 31 -36 32 -29 3 5 -21 4 -21 -16 5 -28 34 -40 35 -33 2 6 -34 -4
-32 -23 5 -17 33 -35 39 -36 13 0 -15 -3 -14 -16 5 -21 29 -35 28 -27 -3 9
-35 0 -31 -25 10 -14 24 -28 35 -44 35 -29 0 -69 41 -66 66 1 11 -1 27 -6 37
-4 9 -4 24 -1 33 3 9 -1 29 -11 44 -15 27 -15 30 0 54 22 32 21 44 -3 97 l-19
44 26 27 c20 21 24 33 19 53 -5 21 -1 32 17 49 17 16 26 38 31 76 8 63 14 76
29 61 6 -6 23 -11 37 -11z m-2752 -242 l57 -25 -62 -18 -62 -18 -6 -56 c-4
-31 -8 -60 -9 -66 -1 -5 -18 14 -37 43 -37 57 -28 55 -134 34 l-29 -5 38 51
38 52 -32 55 c-17 30 -30 55 -27 55 2 0 29 -9 61 -20 l56 -19 43 46 42 46 3
-65 3 -65 57 -25z m3721 76 c29 10 54 16 57 13 3 -3 -6 -28 -22 -55 l-27 -49
36 -48 c21 -26 36 -49 34 -51 -1 -2 -29 3 -61 10 l-58 14 -36 -51 -37 -51 -6
29 c-4 17 -7 44 -8 62 -1 31 -4 33 -63 52 l-63 19 58 27 57 26 0 67 0 66 44
-49 43 -50 52 19z m-569 -51 c36 -37 56 -59 44 -50 -20 17 -22 17 -36 -4 l-14
-22 -20 29 c-25 36 -57 114 -46 114 4 0 37 -30 72 -67z m-2821 -123 c0 -22 -3
-20 -19 15 l-19 40 5 -37 c9 -55 -8 -72 -22 -23 -10 36 -9 42 10 63 l21 24 12
-29 c7 -15 12 -39 12 -53z m-69 -25 c0 -19 -4 -35 -10 -35 -5 0 -10 9 -10 20
0 29 -15 25 -26 -7 -5 -16 -13 -23 -16 -18 -7 12 38 75 53 75 5 0 9 -16 9 -35z
m110 -46 c-7 -11 -27 -29 -45 -40 -18 -11 -36 -26 -38 -33 -6 -14 -148 -66
-180 -66 -17 0 -17 1 -1 30 14 23 21 27 32 18 11 -9 12 -6 7 18 -6 28 -6 28 9
10 9 -11 16 -23 16 -28 0 -17 29 -7 47 17 13 18 128 86 161 94 1 1 -2 -8 -8
-20z m104 -51 c-55 -60 -59 -62 -80 -54 -13 5 -14 9 -4 21 16 19 7 19 -31 -1
-17 -8 -34 -13 -37 -9 -9 8 26 34 56 42 12 3 22 9 22 13 0 5 -10 6 -22 2 -14
-3 -19 -1 -14 6 10 16 62 30 115 31 l44 1 -49 -52z m219 3 c16 -6 15 -10 -11
-46 -52 -71 -97 -108 -122 -100 -16 5 -19 10 -11 18 20 20 12 29 -19 22 -37
-8 -41 11 -5 27 35 16 31 31 -6 23 -24 -6 -30 -4 -27 6 3 8 13 16 24 17 34 7
40 22 9 23 -26 0 -27 2 -10 9 24 10 153 11 178 1z m115 -97 c19 -13 22 -20 16
-52 -9 -52 -36 -96 -62 -100 -12 -2 -22 1 -22 7 0 6 -12 8 -30 5 -23 -5 -30
-3 -30 9 0 8 10 18 23 22 18 7 15 9 -22 14 -61 8 -64 28 -6 36 56 9 69 25 21
25 -20 0 -36 4 -36 9 0 10 34 21 68 21 13 0 20 4 17 10 -3 6 -15 10 -26 10
-19 0 -25 11 -13 23 7 7 66 -16 102 -39z m1537 -4 c23 -52 16 -94 -29 -167
-26 -43 -41 -84 -55 -156 -22 -107 -72 -229 -78 -190 -3 12 2 32 10 45 28 44
60 159 48 171 -8 8 -11 2 -11 -24 0 -19 -7 -44 -15 -55 -14 -18 -14 -17 -15
13 0 36 19 142 53 300 21 98 23 103 48 103 21 0 30 -8 44 -40z m-1923 14 c66
-10 67 -25 7 -115 -51 -76 -56 -80 -84 -74 -16 3 -46 6 -65 6 l-35 -1 25 21
c22 18 22 20 5 16 -11 -3 -37 -12 -57 -21 -53 -23 -47 -5 10 34 47 31 35 33
-35 4 -21 -8 -35 -9 -39 -3 -8 13 -9 11 54 43 28 14 52 29 52 32 0 3 -17 2
-37 -2 -35 -7 -37 -6 -24 9 7 10 19 17 26 17 7 0 20 11 29 24 14 22 21 24 73
21 32 -3 75 -7 95 -11z m3012 -54 c22 -42 23 -48 9 -74 -19 -36 -29 -26 -14
15 18 51 -2 53 -28 4 -29 -55 -40 -51 -17 5 19 47 19 50 6 50 -5 0 -16 -12
-24 -27 -23 -42 -19 -8 6 48 23 55 23 55 62 -21z m-3324 19 c0 -5 -9 -9 -20
-9 -13 0 -18 5 -14 14 6 15 34 11 34 -5z m46 -11 c-3 -7 -9 -21 -12 -30 -6
-18 -34 -33 -34 -18 0 24 21 60 36 60 9 0 13 -5 10 -12z m-543 -52 l17 -53 63
-8 62 -7 -29 -22 c-76 -56 -72 -48 -58 -112 6 -32 10 -59 8 -61 -1 -2 -24 13
-51 33 -36 28 -52 35 -64 27 -9 -5 -33 -19 -53 -32 -44 -26 -44 -26 -21 47
l17 54 -49 44 -50 43 67 1 67 0 22 50 c12 28 25 50 28 50 4 0 15 -24 24 -54z
m3030 19 c9 -19 13 -35 7 -35 -11 0 -40 40 -40 57 0 24 16 13 33 -22z m1312
-20 l25 -55 62 0 63 -1 -46 -42 -47 -42 19 -54 c11 -30 17 -56 14 -59 -2 -2
-26 9 -54 26 l-50 31 -46 -36 c-25 -19 -48 -33 -51 -30 -2 2 1 27 7 56 12 59
8 68 -47 102 -19 11 -34 25 -34 30 0 5 22 9 49 9 59 0 73 12 91 74 7 25 15 46
17 46 2 0 15 -25 28 -55z m-3858 39 c-3 -3 -12 -4 -19 -1 -8 3 -5 6 6 6 11 1
17 -2 13 -5z m1002 -29 c28 -48 46 -118 32 -123 -6 -2 -11 -8 -11 -13 0 -16
29 3 36 23 3 11 8 18 10 15 8 -8 52 -250 56 -302 2 -27 -1 -52 -7 -55 -6 -3
-12 30 -16 85 -5 78 -10 107 -35 184 -7 21 -34 -7 -31 -32 2 -18 -3 -21 -22
-19 -13 1 -29 -3 -36 -8 -10 -8 -21 -2 -44 22 -32 34 -38 48 -21 48 6 0 10 20
10 44 0 28 7 52 19 67 18 22 21 23 37 7 21 -21 13 -55 -20 -91 -14 -15 -21
-27 -15 -27 11 0 69 88 69 105 0 6 -13 24 -30 40 l-30 29 -29 -28 c-21 -20
-31 -24 -36 -15 -9 14 56 79 79 79 8 0 23 -16 35 -35z m47 -21 l4 -39 -15 45
c-18 54 -18 57 -5 44 6 -6 13 -28 16 -50z m-569 9 c41 -21 78 -43 80 -49 2 -7
-9 -39 -26 -72 -29 -58 -51 -85 -51 -63 0 7 -8 7 -26 1 -40 -16 -52 -11 -19 7
40 22 17 28 -30 9 -47 -20 -65 -20 -65 -1 0 8 4 15 9 15 15 0 104 40 99 45 -2
2 -28 -2 -58 -10 -67 -18 -70 -18 -70 -2 0 6 27 20 60 31 91 28 59 46 -35 19
-17 -5 -18 -4 -7 10 7 8 28 18 47 21 19 4 37 12 41 18 5 8 -2 9 -24 5 -19 -4
-32 -2 -32 3 0 6 7 10 16 10 11 0 14 6 9 20 -3 11 -4 20 0 20 3 0 40 -17 82
-37z m-492 17 c3 -5 1 -10 -4 -10 -6 0 -11 5 -11 10 0 6 2 10 4 10 3 0 8 -4
11 -10z m-5 -30 c0 -5 -2 -10 -4 -10 -3 0 -8 5 -11 10 -3 6 -1 10 4 10 6 0 11
-4 11 -10z m50 -24 c0 -30 -15 -42 -24 -20 -10 27 -7 44 9 44 9 0 15 -9 15
-24z m915 14 c-3 -5 -11 -10 -16 -10 -6 0 -7 5 -4 10 3 6 11 10 16 10 6 0 7
-4 4 -10z m2060 -28 c-3 -3 -16 5 -28 17 l-22 23 28 -17 c15 -10 25 -20 22
-23z m-3041 7 c-8 -14 -24 -10 -24 6 0 9 6 12 15 9 8 -4 12 -10 9 -15z m1213
-36 c-3 -10 -5 -4 -5 12 0 17 2 24 5 18 2 -7 2 -21 0 -30z m2003 11 c0 -9 -6
-42 -14 -73 -8 -31 -17 -68 -20 -82 -3 -14 -15 -38 -27 -53 l-21 -27 -24 22
c-30 28 -30 40 1 69 14 13 28 39 31 59 8 44 29 87 46 94 23 9 28 7 28 -9z
m213 2 c4 -11 1 -13 -10 -9 -10 4 -14 2 -9 -5 3 -6 2 -13 -4 -17 -5 -3 -10 -1
-10 5 0 8 -9 10 -24 6 -14 -3 -27 -2 -31 3 -3 6 14 14 37 19 24 6 44 10 44 11
1 1 4 -6 7 -13z m-3453 -4 c0 -13 -12 -22 -22 -16 -10 6 -1 24 13 24 5 0 9 -4
9 -8z m50 0 c0 -4 -20 -32 -45 -62 -47 -57 -64 -96 -49 -109 5 -5 35 -19 66
-31 31 -13 55 -27 51 -32 -15 -25 -205 -80 -220 -64 -6 6 24 100 45 141 9 17
15 34 14 38 -1 5 2 6 6 3 11 -6 112 97 112 113 0 6 5 11 10 11 6 0 10 -3 10
-8z m3295 -32 c19 -37 19 -40 -3 -40 -31 0 -55 24 -48 48 10 31 33 27 51 -8z
m-2575 5 c0 -23 -25 -78 -41 -92 -19 -15 -111 -21 -116 -7 -2 7 8 14 22 18 37
9 31 26 -7 20 l-33 -5 23 19 c12 11 28 23 35 25 9 4 8 8 -2 16 -11 7 -5 11 25
14 84 8 94 7 94 -8z m2106 4 c9 -15 -14 -29 -48 -29 -16 0 -28 -4 -28 -10 0
-5 -7 -10 -16 -10 -8 0 -12 4 -9 10 3 5 1 19 -5 30 -10 19 -8 20 44 20 30 0
58 -5 62 -11z m-2911 -20 c-10 -15 -25 -10 -19 6 4 8 10 12 15 9 5 -3 7 -10 4
-15z m125 9 c0 -7 -14 -26 -32 -41 -24 -21 -27 -25 -10 -17 34 17 41 2 12 -22
-24 -19 -18 -19 25 -2 21 8 19 -16 -2 -33 -17 -13 -17 -14 2 -9 16 5 27 -5 54
-45 18 -28 30 -57 27 -65 -3 -8 1 -14 10 -14 11 0 13 -6 8 -22 -6 -20 -5 -21
10 -9 19 16 35 6 18 -11 -21 -21 -13 -32 8 -13 24 22 38 13 19 -12 -12 -16
-11 -15 8 1 21 18 24 18 58 2 19 -9 39 -26 45 -36 13 -24 32 -27 23 -3 -5 14
-1 15 35 10 24 -3 42 -1 42 5 0 5 10 6 21 3 15 -5 19 -4 15 4 -10 15 7 14 22
-1 9 -9 12 -6 12 17 0 27 1 27 19 11 15 -13 20 -14 24 -4 4 10 7 11 18 1 18
-18 30 -16 23 2 -4 8 -1 15 5 15 6 0 11 -4 11 -10 0 -5 5 -10 10 -10 6 0 10 7
10 15 0 18 11 19 29 3 11 -11 13 -10 8 4 -3 9 -3 19 0 22 9 9 35 -33 28 -44
-4 -6 1 -22 10 -36 16 -25 16 -26 -2 -20 -52 15 -77 16 -177 1 -69 -9 -116
-21 -128 -31 -11 -11 -22 -14 -31 -8 -7 5 -1 -2 14 -16 21 -19 30 -40 37 -90
12 -79 42 -162 61 -168 8 -3 11 0 7 7 -5 7 1 11 13 11 24 0 26 -9 8 -34 -13
-18 -17 -17 -68 16 -99 63 -158 74 -185 33 -13 -20 -14 -28 -4 -40 7 -8 8 -15
2 -15 -5 0 -15 7 -22 15 -7 8 -19 15 -27 15 -8 0 -47 11 -86 24 -107 35 -200
56 -251 56 -24 0 -48 4 -51 10 -3 5 -8 33 -10 62 -4 49 -4 51 7 21 17 -50 31
-40 23 17 -9 62 1 65 16 5 14 -57 36 -61 31 -5 -2 22 -2 40 2 40 3 0 10 -18
16 -40 13 -48 30 -52 31 -7 l1 32 12 -34 c15 -42 36 -52 37 -19 1 22 2 22 12
-4 11 -28 36 -38 38 -15 0 6 4 2 9 -10 9 -23 30 -32 30 -13 0 6 5 10 10 10 6
0 10 -7 10 -15 0 -8 8 -15 18 -15 24 -1 71 -40 55 -47 -21 -8 -15 -18 12 -19
l25 -2 -19 27 c-37 51 -77 80 -181 134 -58 30 -112 56 -120 59 -8 3 -12 9 -8
13 5 5 20 2 35 -5 16 -8 33 -14 40 -15 6 0 15 -4 19 -8 4 -4 12 -7 18 -7 5 0
-7 17 -27 38 -20 21 -37 44 -37 52 0 8 27 -15 61 -50 33 -36 51 -50 39 -32
-12 18 -20 35 -18 37 7 7 48 -25 48 -38 0 -7 24 -38 53 -70 39 -44 59 -58 82
-60 17 -1 36 -10 43 -19 7 -10 23 -18 35 -18 20 1 21 2 5 14 -10 7 -14 16 -10
20 4 4 -1 14 -12 21 -10 8 -15 18 -12 23 3 5 -3 17 -14 27 -11 10 -17 22 -14
27 3 5 -2 18 -12 29 -16 17 -16 19 -1 19 10 0 17 6 17 14 0 16 30 30 40 19 4
-4 18 -39 30 -78 28 -88 64 -151 89 -158 18 -4 18 -2 9 22 -6 14 -20 33 -30
43 -13 12 -15 18 -6 21 9 4 5 12 -11 25 -18 14 -20 21 -10 24 11 4 10 9 -5 27
-13 14 -15 21 -6 21 9 0 7 7 -6 22 -10 12 -13 18 -6 14 6 -4 12 -3 12 2 0 5
-9 12 -20 15 -11 3 -20 12 -20 21 0 22 12 20 46 -6 l29 -22 -30 35 c-16 18
-30 35 -31 36 0 2 -19 -13 -41 -32 -23 -19 -44 -35 -47 -35 -9 0 -33 53 -40
90 -4 19 -16 56 -28 81 -17 38 -27 49 -58 58 -21 6 -54 18 -74 26 l-36 15 31
50 c39 64 89 101 89 68z m205 -12 c43 -10 50 -15 53 -37 3 -29 -27 -113 -65
-177 -24 -42 -25 -43 -44 -26 -15 14 -17 20 -6 32 10 13 9 15 -10 10 -28 -7
-38 5 -18 22 22 18 18 32 -5 20 -11 -6 -25 -8 -32 -4 -7 4 -1 12 16 21 33 17
24 36 -14 28 -39 -9 -47 11 -10 24 17 5 30 15 30 20 0 13 2 13 -38 2 -41 -12
-44 6 -2 20 43 15 38 33 -6 24 -44 -8 -38 10 10 30 31 13 42 12 141 -9z m3149
-10 c-31 -27 -44 -32 -44 -17 0 10 62 52 68 46 3 -2 -9 -15 -24 -29z m-510
-27 c27 -21 34 -39 15 -39 -20 0 -79 41 -73 51 9 15 29 10 58 -12z m350 6 c14
-10 17 -18 10 -25 -7 -7 -18 -2 -34 15 -26 28 -9 35 24 10z m171 -21 c-10 -7
-22 -11 -28 -7 -5 3 1 14 14 24 16 12 25 14 28 7 2 -6 -4 -17 -14 -24z m-2197
-40 c-3 -14 -5 -12 -10 9 -3 19 -2 25 4 19 6 -6 8 -18 6 -28z m1622 26 c0 -5
-18 -10 -41 -10 -26 0 -38 -4 -34 -11 4 -5 24 -9 46 -7 38 3 57 -14 22 -20
-41 -7 -49 -14 -25 -23 12 -4 22 -13 22 -19 0 -17 -24 -22 -52 -11 -15 5 -64
15 -109 21 -117 16 -124 22 -60 55 29 14 50 21 46 15 -4 -7 1 -9 17 -5 79 18
107 23 136 24 17 1 32 -3 32 -9z m375 0 c3 -5 2 -10 -4 -10 -5 0 -13 5 -16 10
-3 6 -2 10 4 10 5 0 13 -4 16 -10z m145 -20 c0 -5 -4 -10 -10 -10 -5 0 -10 5
-10 10 0 6 5 10 10 10 6 0 10 -4 10 -10z m114 -5 c3 -9 0 -15 -9 -15 -8 0 -15
7 -15 15 0 8 4 15 9 15 5 0 11 -7 15 -15z m-2925 -10 c2 -2 -16 -37 -40 -77
-31 -51 -50 -73 -65 -74 -11 -1 -43 -9 -72 -18 -68 -23 -103 -16 -45 9 53 22
46 36 -14 28 -36 -5 -45 -3 -41 7 2 8 19 19 38 25 41 14 55 39 16 29 -17 -4
-26 -2 -26 6 0 6 9 14 20 17 22 6 27 29 8 35 -6 2 -9 8 -6 14 5 8 218 7 227
-1z m2852 -8 c-13 -13 -26 -3 -16 12 3 6 11 8 17 5 6 -4 6 -10 -1 -17z m-375
-13 c37 -25 84 -92 84 -120 0 -13 4 -26 10 -29 5 -3 14 -24 21 -47 13 -48 0
-88 -29 -88 -10 0 -22 -4 -28 -10 -6 -6 -23 -6 -47 1 -38 10 -42 29 -6 29 10
0 36 16 57 35 44 41 40 45 -8 10 -36 -27 -50 -31 -50 -15 0 5 13 16 28 24 15
8 33 26 40 40 17 37 -21 90 -68 94 -57 5 -69 12 -40 25 23 11 19 12 -32 15
-32 2 -58 7 -58 12 0 6 26 11 58 12 l57 2 -52 3 c-29 2 -53 8 -53 13 0 25 73
21 116 -6z m190 -1 c-7 -7 -26 7 -26 19 0 6 6 6 15 -2 9 -7 13 -15 11 -17z
m129 -2 c68 -33 124 -76 113 -86 -4 -4 -36 -13 -70 -19 -78 -14 -81 -23 -35
-121 20 -40 33 -76 30 -79 -8 -7 -112 176 -135 237 -22 57 -16 97 16 97 11 0
48 -13 81 -29z m-2669 -28 c-29 -56 -93 -103 -141 -103 -24 0 -18 27 8 33 12
4 31 13 42 22 18 15 18 16 2 11 -55 -18 -67 -18 -61 -3 3 8 21 18 40 21 40 8
46 26 7 26 -14 0 -23 3 -19 8 11 10 130 29 134 20 2 -3 -3 -19 -12 -35z m2765
24 c-1 -12 -15 -9 -19 4 -3 6 1 10 8 8 6 -3 11 -8 11 -12z m-2366 -7 c-3 -5
-11 -10 -16 -10 -6 0 -7 5 -4 10 3 6 11 10 16 10 6 0 7 -4 4 -10z m142 -12
c-3 -8 -6 -5 -6 6 -1 11 2 17 5 13 3 -3 4 -12 1 -19z m-156 -19 l24 -20 -28 4
c-37 6 -45 -10 -10 -20 27 -7 27 -8 -12 -13 l-40 -6 30 -13 c27 -12 28 -14 11
-20 -19 -7 -19 -8 -1 -14 10 -4 15 -10 12 -13 -3 -3 9 -20 26 -37 18 -17 31
-37 29 -44 -2 -8 8 -13 25 -13 27 -1 27 -1 9 -15 -19 -14 -18 -15 9 -15 28 0
28 -1 9 -16 -19 -15 -18 -15 3 -11 12 3 27 -1 34 -9 9 -11 8 -14 -7 -15 -17 0
-17 -2 4 -16 26 -18 29 -33 6 -33 -13 0 -11 -4 6 -18 25 -20 20 -42 -8 -42
-16 -1 -16 -1 1 -11 23 -13 22 -36 -2 -44 -12 -4 -18 -12 -14 -21 8 -22 -34
-18 -47 5 -7 14 -6 21 3 24 9 3 9 7 -1 19 -10 13 -10 17 3 22 10 3 13 11 9 18
-4 7 -9 23 -10 36 -2 13 -9 29 -17 35 -8 7 -17 19 -20 27 -4 12 -6 12 -6 -2
-1 -17 -34 -15 -58 4 -18 14 -33 1 -33 -29 0 -26 0 -26 21 -7 19 17 23 17 47
3 37 -20 48 -58 33 -110 l-12 -41 -30 28 c-34 33 -38 24 -8 -18 24 -33 20 -45
-9 -27 -30 19 -72 89 -72 121 0 18 -5 28 -15 28 -14 0 -14 3 1 25 17 26 10 55
-9 36 -18 -18 -28 -12 -17 9 7 13 8 26 1 38 -7 12 -5 22 6 34 13 14 14 25 5
60 -10 39 -9 44 10 59 16 12 18 17 7 21 -11 4 -11 9 4 25 9 11 17 24 17 30 0
28 51 29 81 2z m2159 11 c0 -5 -5 -10 -11 -10 -5 0 -7 5 -4 10 3 6 8 10 11 10
2 0 4 -4 4 -10z m-600 -14 c9 -11 18 -13 37 -5 32 12 42 5 14 -11 -37 -19 -22
-30 18 -14 76 30 74 9 -3 -30 -82 -42 -97 -61 -23 -28 25 11 59 23 76 27 48
10 30 -19 -27 -43 -35 -15 -41 -21 -24 -21 17 -1 22 -6 20 -18 -3 -16 -16 -18
-107 -16 -58 1 -109 7 -114 12 -6 6 2 26 21 55 76 111 87 121 112 92z m865 4
c3 -5 -1 -10 -9 -10 -9 0 -16 5 -16 10 0 6 4 10 9 10 6 0 13 -4 16 -10z m-605
-8 c0 -4 -5 -13 -12 -20 -16 -16 5 -16 32 0 30 19 38 -1 10 -23 l-25 -21 30 7
c53 10 58 10 62 -1 2 -6 -10 -17 -27 -24 -16 -7 -30 -16 -30 -21 0 -13 12 -11
53 6 45 18 47 18 47 1 0 -8 -20 -22 -45 -32 -25 -9 -45 -20 -45 -25 0 -5 6 -7
13 -5 6 3 25 7 40 10 l28 7 -16 -31 c-15 -30 -16 -30 -101 -30 -82 0 -174 15
-174 29 0 21 129 181 146 181 8 0 14 -4 14 -8z m-372 -32 c-7 -11 -18 -20 -24
-20 -7 0 -22 -9 -35 -20 l-24 -21 33 16 33 16 -15 -29 c-12 -23 -24 -31 -51
-34 -19 -2 -35 0 -35 6 0 15 98 106 115 106 13 0 13 -3 3 -20z m722 12 c0 -13
-12 -22 -22 -16 -10 6 -1 24 13 24 5 0 9 -4 9 -8z m-80 -12 c0 -5 -4 -10 -10
-10 -5 0 -10 5 -10 10 0 6 5 10 10 10 6 0 10 -4 10 -10z m365 0 c3 -6 -1 -7
-9 -4 -18 7 -21 14 -7 14 6 0 13 -4 16 -10z m-3465 -19 c0 -12 -20 -25 -27
-18 -7 7 6 27 18 27 5 0 9 -4 9 -9z m3194 -16 c3 -9 0 -15 -8 -15 -8 0 -16 7
-20 15 -3 9 0 15 8 15 8 0 16 -7 20 -15z m286 7 c0 -5 -14 -21 -31 -36 -26
-23 -33 -25 -47 -14 -15 11 -15 10 1 -14 20 -32 9 -36 -31 -11 l-27 17 23 -26
c14 -15 19 -28 13 -32 -5 -4 -12 -2 -16 4 -3 5 -11 10 -17 10 -6 0 -2 -10 10
-23 12 -13 22 -31 22 -40 0 -42 -42 -1 -65 62 -26 75 -24 77 57 85 40 4 77 11
82 16 12 12 26 13 26 2z m-3431 -52 c6 -28 18 -64 25 -79 11 -21 12 -31 4 -39
-9 -9 -8 -16 4 -29 8 -10 13 -24 11 -30 -3 -7 3 -20 11 -29 9 -8 16 -24 16
-35 0 -19 -1 -19 -30 3 -22 16 -27 24 -18 30 10 6 10 8 1 8 -7 0 -13 7 -13 15
0 9 -17 26 -37 38 l-38 22 30 5 c30 5 30 5 -17 23 -25 10 -52 25 -58 33 -17
19 -7 18 40 -6 44 -23 50 -24 50 -11 0 5 -8 12 -17 15 -29 10 -77 52 -66 59 5
3 26 -5 46 -18 50 -35 57 -31 17 10 -19 19 -29 35 -23 35 7 0 15 -4 18 -10 12
-19 22 -10 17 15 -9 48 16 24 27 -25z m-99 30 c0 -5 -7 -10 -15 -10 -8 0 -15
5 -15 10 0 6 7 10 15 10 8 0 15 -4 15 -10z m-49 -23 c-13 -13 -26 -3 -16 12 3
6 11 8 17 5 6 -4 6 -10 -1 -17z m489 13 c0 -12 -48 -32 -64 -27 -8 3 31 26 62
36 1 1 2 -4 2 -9z m1211 -136 c7 -145 23 -431 35 -593 5 -63 4 -92 -3 -88 -11
7 -25 162 -48 533 -18 294 -18 297 -2 292 8 -3 14 -46 18 -144z m-1741 115 c0
-5 -4 -9 -10 -9 -5 0 -10 7 -10 16 0 8 5 12 10 9 6 -3 10 -10 10 -16z m-40 1
c0 -5 -5 -10 -11 -10 -5 0 -7 5 -4 10 3 6 8 10 11 10 2 0 4 -4 4 -10z m3205
-10 c-10 -11 -20 -18 -23 -15 -7 6 18 35 31 35 5 0 2 -9 -8 -20z m193 2 c2 -7
-3 -12 -12 -12 -9 0 -16 7 -16 16 0 17 22 14 28 -4z m269 -10 c12 -8 43 -93
43 -119 0 -22 -63 -15 -95 11 -35 28 -27 46 9 22 34 -22 42 -2 10 23 -30 24
-27 39 4 22 36 -19 48 -11 20 14 -16 13 -28 27 -28 30 0 8 23 6 37 -3z m-3583
-28 c11 -30 6 -37 -14 -19 -11 10 -20 22 -20 27 0 15 28 9 34 -8z m2509 -6
c25 5 21 -9 -10 -35 -21 -17 -24 -22 -11 -23 9 0 20 5 23 10 9 15 25 12 25 -4
0 -7 -10 -21 -22 -29 -19 -13 -20 -16 -5 -16 21 -1 23 -27 1 -35 -32 -12 -104
-6 -110 9 -8 20 22 94 49 123 17 19 23 20 32 10 5 -8 18 -12 28 -10z m825 3
c3 -8 -1 -12 -9 -9 -7 2 -15 10 -17 17 -3 8 1 12 9 9 7 -2 15 -10 17 -17z
m-3438 0 c0 -5 -11 -23 -24 -38 -22 -25 -26 -26 -40 -13 -26 25 -10 56 30 58
19 2 34 -2 34 -7z m1399 -76 c1 -16 -1 -17 -9 -5 -5 8 -9 29 -9 45 1 29 1 29
9 5 4 -14 8 -34 9 -45z m1287 31 c-26 -40 -19 -43 18 -7 48 47 68 35 25 -14
-37 -42 -29 -40 44 13 37 27 51 32 60 23 9 -10 8 -14 -4 -21 -9 -5 -27 -18
-40 -30 l-24 -20 28 10 c16 5 37 15 48 20 15 8 19 7 19 -5 0 -8 -15 -21 -32
-29 l-33 -14 28 -1 c28 -1 32 -7 18 -30 -7 -11 -26 -12 -97 -5 l-89 9 2 43 c2
42 28 100 40 88 3 -3 -2 -17 -11 -30z m776 9 c0 -5 -5 -11 -11 -13 -6 -2 -11
4 -11 13 0 9 5 15 11 13 6 -2 11 -8 11 -13z m-3947 -44 l24 -49 63 6 63 5 -42
-49 -41 -49 24 -54 c13 -29 24 -55 24 -57 0 -3 -22 7 -50 21 -27 14 -55 25
-63 25 -7 0 -28 -16 -47 -35 -19 -19 -38 -35 -42 -35 -5 0 -6 26 -2 58 l6 59
-53 33 c-52 32 -53 34 -29 41 14 4 37 7 52 8 37 1 54 22 62 76 4 25 11 45 16
45 6 0 21 -22 35 -49z m4680 -13 l11 -53 64 -14 63 -13 -39 -23 c-73 -43 -73
-44 -64 -105 4 -30 6 -57 4 -59 -3 -3 -24 14 -48 38 l-43 43 -53 -27 c-28 -14
-54 -24 -57 -22 -2 3 5 27 16 52 12 26 21 51 21 55 0 4 -18 28 -41 53 l-40 46
65 -6 64 -6 27 53 c14 28 29 49 32 46 3 -3 11 -29 18 -58z m-3595 26 c0 16 3
15 20 -5 l19 -24 1 25 c1 22 2 23 11 8 5 -10 14 -18 19 -18 6 0 10 8 10 18 1
16 1 16 11 -1 9 -15 13 -16 25 -6 12 10 16 8 21 -9 8 -32 23 -27 23 8 0 17 5
30 10 30 6 0 10 -7 10 -16 0 -11 6 -15 20 -11 11 3 20 1 20 -3 0 -11 43 1 52
14 5 7 8 5 8 -6 0 -9 -4 -20 -10 -23 -17 -11 -11 -31 20 -70 29 -36 29 -39 13
-57 -14 -16 -15 -24 -5 -52 7 -18 12 -36 12 -39 0 -4 -31 8 -69 28 -52 26 -78
46 -101 80 -31 45 -87 84 -150 104 -25 8 -36 17 -36 31 0 19 1 19 23 -2 21
-19 23 -20 23 -4z m-535 6 c3 -5 1 -10 -4 -10 -6 0 -11 5 -11 10 0 6 2 10 4
10 3 0 8 -4 11 -10z m2883 -4 c12 -1 20 -6 18 -13 -7 -18 5 -23 26 -12 26 14
45 -3 23 -21 -21 -18 -19 -30 6 -30 19 0 20 -2 8 -16 -7 -9 -12 -30 -10 -46
l3 -30 -84 7 c-45 4 -86 9 -90 11 -3 2 6 40 20 84 21 61 30 78 42 73 8 -3 25
-7 38 -7z m533 -9 c-1 -12 -15 -9 -19 4 -3 6 1 10 8 8 6 -3 11 -8 11 -12z
m-1611 -142 c22 -280 28 -380 22 -390 -3 -5 -5 -41 -5 -80 1 -54 0 -63 -7 -40
-5 17 -14 145 -20 285 -6 140 -14 282 -17 315 -4 44 -2 57 6 50 6 -6 16 -69
21 -140z m1240 110 c0 -19 9 -19 32 2 20 18 25 4 8 -28 -13 -23 -3 -25 22 -2
25 23 34 9 14 -23 -20 -29 -14 -43 9 -24 22 18 18 -3 -7 -35 -33 -42 -98 -85
-130 -85 -15 0 -28 5 -28 11 0 10 37 162 45 187 6 17 35 15 35 -3z m-2475 -36
c4 -11 11 -17 16 -13 6 3 36 -18 67 -48 31 -29 92 -74 134 -98 43 -25 78 -51
78 -57 0 -18 -21 -16 -48 3 -12 8 -31 13 -41 9 -23 -7 -61 14 -61 32 0 7 -6
13 -12 13 -9 0 -8 3 1 9 12 8 10 12 -12 22 -15 7 -27 18 -27 24 0 14 -28 40
-35 34 -2 -3 5 -25 16 -49 22 -48 18 -90 -7 -90 -8 0 -30 16 -50 35 -27 27
-31 35 -17 35 13 1 9 6 -12 17 l-30 17 25 6 c23 5 24 6 5 13 -16 7 -17 10 -5
17 11 7 8 12 -15 21 -25 10 -27 13 -11 17 18 4 18 5 -5 23 l-24 18 25 -5 c25
-4 25 -4 3 7 -33 17 -28 30 7 18 16 -6 32 -19 35 -30z m2655 19 c0 -22 -26
-58 -42 -58 -11 0 -10 23 2 54 12 32 40 35 40 4z m215 13 c7 -12 -12 -24 -25
-16 -11 7 -4 25 10 25 5 0 11 -4 15 -9z m65 -5 c0 -25 -12 -46 -26 -46 -17 0
-18 14 -4 41 12 22 30 25 30 5z m148 -51 c3 3 -3 14 -13 25 -15 16 -15 20 -3
20 31 0 49 -39 72 -156 13 -65 27 -138 31 -162 l7 -42 -36 21 c-45 26 -57 44
-25 35 20 -6 18 -2 -14 26 -55 49 -46 71 11 24 l29 -25 0 29 c0 31 -5 34 -69
46 -37 6 -67 29 -55 41 4 3 -5 14 -18 25 -35 27 -31 42 6 22 38 -19 30 -4 -22
43 -42 38 -44 65 -3 39 84 -55 82 -54 41 -5 -20 25 -37 49 -37 53 0 4 21 -9
47 -29 25 -19 48 -33 51 -30z m-3793 -98 c6 -14 2 -20 -14 -24 -12 -3 -30 -22
-41 -42 -25 -47 -25 -28 2 98 l22 103 12 -58 c7 -33 15 -67 19 -77z m2635 95
c0 -4 -5 -13 -12 -20 -17 -17 4 -15 30 4 32 22 43 7 12 -16 -14 -11 -20 -20
-13 -20 6 0 15 5 18 10 3 6 12 10 18 10 7 -1 2 -9 -11 -19 -15 -13 -18 -21
-10 -24 7 -3 3 -6 -10 -6 -27 -1 -62 15 -62 29 0 19 20 60 30 60 5 0 10 -4 10
-8z m173 -13 c25 1 27 -1 21 -26 l-7 -28 26 24 c22 20 29 22 42 11 22 -18 19
-27 -15 -39 -36 -12 -40 -26 -5 -17 29 7 35 -13 9 -35 -19 -16 -181 -26 -196
-11 -10 10 7 52 44 105 14 20 25 26 37 21 9 -4 28 -6 44 -5z m784 5 c-3 -3
-12 -4 -19 -1 -8 3 -5 6 6 6 11 1 17 -2 13 -5z m47 -36 c5 -21 3 -28 -9 -28
-11 0 -15 11 -15 37 0 41 13 35 24 -9z m-96 10 c-3 -7 -15 -14 -29 -16 -24 -4
-24 -3 -4 12 24 19 38 20 33 4z m47 2 c3 -5 -1 -10 -9 -10 -9 0 -16 5 -16 10
0 6 4 10 9 10 6 0 13 -4 16 -10z m5 -30 c0 -5 -4 -10 -9 -10 -6 0 -13 5 -16
10 -3 6 1 10 9 10 9 0 16 -4 16 -10z m-610 -25 c9 -11 17 -12 30 -5 31 17 45
12 27 -8 -24 -27 -21 -35 10 -27 23 5 25 4 14 -9 -18 -22 -105 -46 -164 -46
l-49 0 49 54 c51 59 63 65 83 41z m648 -31 c47 -23 79 -50 137 -115 22 -25 44
-60 45 -71 1 -18 -130 99 -139 124 -13 35 -34 36 -60 1 -15 -21 -20 -24 -21
-11 0 9 5 20 10 23 6 3 10 11 10 17 0 17 -29 -12 -47 -46 -9 -17 -18 -25 -20
-19 -3 7 5 29 17 48 12 19 17 35 11 35 -12 0 -47 -48 -61 -84 -5 -14 -16 -26
-24 -26 -19 0 -12 21 26 77 18 26 23 40 14 37 -8 -3 -29 -28 -47 -55 -30 -48
-49 -56 -49 -20 0 10 9 26 21 37 36 33 43 54 22 70 -32 25 95 7 155 -22z
m-211 6 c-14 -11 -40 -20 -59 -20 l-33 1 35 19 c19 11 46 19 59 20 l24 0 -26
-20z m-3326 -38 l17 -37 1 44 c1 50 11 47 26 -7 15 -51 35 -54 28 -3 -7 54 13
54 22 1 8 -47 25 -54 25 -10 0 41 18 38 26 -5 7 -37 24 -48 24 -16 0 33 18 33
25 1 8 -36 25 -40 25 -5 0 34 17 32 25 -4 9 -40 33 -48 37 -13 4 26 4 26 20
-10 19 -43 38 -51 30 -13 -2 14 0 25 6 25 5 0 13 -16 16 -35 8 -42 36 -49 36
-8 0 34 10 24 19 -19 4 -21 13 -33 23 -33 9 0 20 -4 24 -8 12 -12 24 -8 24 8
0 18 12 19 27 4 7 -7 9 -26 6 -46 -5 -28 0 -41 26 -73 31 -38 39 -60 23 -60
-5 0 -17 9 -27 20 -10 11 -30 26 -44 33 -14 7 -69 36 -121 64 -63 33 -130 59
-199 77 -57 15 -105 25 -107 23 -7 -6 20 -77 29 -77 5 0 7 9 4 19 -2 10 -1 25
4 32 6 10 10 5 15 -18 4 -18 11 -33 16 -33 6 0 8 9 5 20 -3 11 -1 20 5 20 5 0
12 -10 16 -22 5 -21 5 -21 15 3 l10 24 10 -27 c12 -32 23 -36 30 -10 4 14 6
14 12 -5 9 -27 22 -30 28 -5 3 13 7 10 17 -13 10 -23 14 -26 17 -12 6 23 23
22 23 -3 0 -21 20 -29 20 -7 0 6 9 1 20 -13 14 -17 20 -20 20 -10 1 9 5 7 12
-7 12 -25 33 -30 41 -10 3 6 6 2 6 -11 1 -19 5 -22 21 -17 14 4 20 2 20 -8 0
-10 7 -13 20 -10 14 4 20 0 20 -11 0 -9 8 -16 20 -16 14 0 20 -7 20 -22 0 -12
5 -37 12 -55 10 -27 10 -38 0 -54 -7 -11 -10 -24 -7 -29 3 -5 -1 -23 -10 -39
-21 -42 -20 -49 20 -111 19 -30 35 -58 35 -63 0 -11 -65 0 -100 16 -14 7 -26
21 -28 32 -2 16 -1 17 7 6 5 -8 19 -15 32 -16 21 -2 21 -1 3 12 -10 8 -32 21
-47 29 -28 15 -29 15 -22 -6 6 -20 5 -21 -15 -10 -16 9 -19 14 -10 25 9 11 -4
22 -62 55 -40 24 -79 50 -87 59 -11 14 -12 13 -6 -9 4 -14 18 -45 32 -68 25
-44 25 -44 3 -37 -14 4 -28 1 -40 -10 -19 -17 -22 -16 -74 9 -61 30 -98 64
-58 54 26 -7 27 -5 6 27 -10 15 -12 25 -5 25 16 0 13 21 -6 42 -16 18 -16 18
0 12 20 -7 23 16 5 34 -8 8 -8 12 -1 12 12 0 11 63 -2 93 -4 10 -5 20 -3 22 4
5 97 -116 124 -161 10 -16 15 -17 32 -7 15 9 22 9 31 0 7 -7 15 -12 19 -12 4
-1 17 -6 30 -13 12 -7 22 -10 22 -6 0 4 9 -1 20 -11 25 -23 33 -16 21 18 -7
17 -16 25 -25 21 -8 -3 -19 3 -26 16 -6 11 -16 20 -23 19 -7 -1 -25 4 -42 11
-16 7 -41 13 -54 14 -19 1 -31 15 -58 64 -34 64 -39 103 -6 43 20 -34 33 -40
33 -14 0 15 3 14 15 -4 9 -12 22 -20 29 -17 8 3 17 0 21 -6 5 -8 11 -5 21 7
13 17 14 17 20 -4 6 -23 34 -32 34 -12 0 8 5 8 15 -1 8 -7 15 -19 15 -26 0 -8
5 -14 10 -14 6 0 10 5 10 10 0 18 19 10 25 -11 4 -13 12 -18 22 -15 9 4 17 -1
20 -14 3 -11 13 -20 23 -20 10 0 21 -6 23 -12 4 -10 8 -9 16 2 15 21 14 23
-17 41 -15 9 -50 31 -79 49 -54 34 -270 110 -313 110 -34 0 -79 58 -88 113 -7
38 -11 42 -38 45 -24 2 -35 11 -48 39 -16 33 -16 35 -1 23 15 -13 16 -10 10
36 -8 54 -1 53 26 -4z m-51 8 c0 -5 -2 -10 -4 -10 -3 0 -8 5 -11 10 -3 6 -1
10 4 10 6 0 11 -4 11 -10z m6 -73 c24 -46 24 -48 7 -74 -15 -23 -18 -50 -18
-175 1 -147 1 -149 28 -175 29 -30 45 -26 27 6 -6 12 -7 21 -2 21 15 0 11 93
-4 114 -21 30 -17 42 7 20 20 -18 20 -18 13 11 -4 17 -13 39 -20 50 -19 26
-17 45 1 21 21 -27 31 -11 18 25 -10 25 -10 29 2 19 9 -7 15 -8 20 0 3 5 10
10 14 10 15 0 62 -80 55 -92 -4 -7 -8 -46 -9 -87 0 -42 -4 -81 -8 -88 -4 -6
-3 -14 2 -17 5 -4 9 -19 9 -35 -1 -23 -8 -30 -35 -40 -33 -12 -35 -12 -86 35
-29 27 -55 53 -59 59 -5 7 -14 6 -29 -3 -19 -12 -24 -11 -48 12 -15 14 -35 26
-44 26 -13 0 -17 8 -16 38 1 20 4 28 6 17 2 -11 21 -31 41 -44 l37 -23 -32 34
c-18 19 -33 37 -33 41 0 16 23 5 51 -22 44 -45 35 -21 -16 38 -25 29 -45 60
-44 69 0 14 2 14 6 2 4 -8 17 -23 30 -34 13 -10 38 -33 55 -50 41 -43 21 -4
-31 59 -22 27 -38 51 -35 54 2 3 25 -15 51 -40 26 -24 40 -34 32 -23 -8 12
-31 45 -51 75 -54 77 -47 83 18 14 54 -58 53 -48 -3 35 -37 55 -27 67 18 19
l40 -44 -37 68 c-20 37 -33 71 -29 75 3 4 11 -1 16 -11 6 -9 21 -29 35 -45
l24 -27 -20 48 c-26 62 -25 64 5 30 l25 -28 -15 37 c-18 45 -21 82 -4 58 5 -8
21 -36 35 -63z m1294 53 c0 -5 -4 -10 -10 -10 -5 0 -10 5 -10 10 0 6 5 10 10
10 6 0 10 -4 10 -10z m1040 -73 c100 -159 278 -401 448 -612 35 -44 60 -81 55
-82 -30 -9 -838 -82 -843 -76 -4 5 -19 37 -33 73 -14 36 -33 82 -41 103 -15
33 -15 38 -1 43 9 4 23 -3 35 -17 l20 -24 -6 28 c-7 31 9 36 36 12 16 -14 17
-14 12 11 -3 19 -1 25 7 20 6 -4 20 0 32 8 12 8 27 12 35 9 7 -3 21 2 29 11 9
9 25 16 34 16 10 0 24 7 31 15 7 8 18 15 24 15 6 0 26 23 45 50 36 53 41 83
27 159 -7 38 -6 43 7 38 17 -6 15 5 -10 53 -16 30 -17 57 -3 62 7 2 5 16 -5
40 -27 65 -19 78 21 33 l35 -40 -17 34 c-21 44 -35 91 -26 90 4 0 27 -32 52
-72z m893 23 c-35 -22 -63 -42 -63 -44 0 -3 34 13 75 35 41 23 75 36 75 29 0
-6 -14 -19 -31 -28 -54 -30 -68 -43 -29 -28 59 23 80 28 80 18 0 -5 -21 -19
-47 -30 -59 -25 -240 -75 -255 -70 -6 2 15 27 46 55 62 57 124 104 112 85 -10
-16 3 -15 34 3 14 8 34 14 45 15 13 0 -3 -15 -42 -40z m-1896 -7 c27 -36 4
-123 -32 -123 -26 0 -65 59 -65 99 0 21 3 41 8 45 12 13 76 -2 89 -21z m-1460
-15 c-3 -7 -5 -2 -5 12 0 14 2 19 5 13 2 -7 2 -19 0 -25z m190 -40 c-3 -8 -6
-5 -6 6 -1 11 2 17 5 13 3 -3 4 -12 1 -19z m3539 -25 l-6 -48 22 40 c16 28 23
35 26 23 2 -9 -2 -26 -7 -37 -6 -11 -11 -28 -11 -38 1 -11 9 -3 23 22 18 35
22 37 25 18 2 -12 -2 -32 -8 -43 -18 -34 -4 -35 16 -1 21 35 41 43 23 9 -25
-49 -52 -79 -96 -109 -44 -31 -46 -31 -63 -13 -29 30 -73 164 -59 180 16 19
29 8 30 -24 0 -24 2 -23 15 12 20 57 27 58 22 4 -6 -52 6 -57 16 -7 6 30 22
59 33 59 3 0 2 -21 -1 -47z m-356 -30 c0 -15 2 -14 16 3 15 18 15 18 11 -10
l-5 -28 23 28 c28 34 45 26 21 -10 -26 -40 -19 -43 19 -6 45 44 53 34 15 -18
-37 -51 -26 -55 20 -7 55 57 72 41 20 -18 -41 -47 -38 -52 10 -21 54 36 61 24
14 -22 -24 -22 -31 -33 -19 -29 35 14 75 18 75 8 0 -6 -12 -16 -27 -23 -40
-18 -164 -60 -179 -60 -18 0 -32 61 -34 145 -3 85 -3 85 10 85 6 0 10 -8 10
-17z m-2054 -33 c-4 -25 -2 -40 4 -40 5 0 10 -12 10 -27 1 -30 25 -65 53 -76
20 -7 52 19 52 43 0 8 8 16 18 18 21 4 22 -16 3 -63 -13 -30 -20 -35 -49 -35
-39 0 -80 28 -102 70 -25 49 -16 150 13 150 3 0 2 -18 -2 -40z m2648 6 c10
-39 36 -335 36 -406 l0 -67 -92 -7 c-51 -4 -104 -10 -118 -13 -25 -6 -25 -5 6
28 18 19 41 53 53 76 11 23 25 44 31 48 5 3 19 27 31 53 25 52 31 174 15 265
-8 43 -7 47 12 47 13 0 22 -9 26 -24z m-736 -33 c-43 -68 -43 -69 5 -20 69 70
91 61 28 -12 -28 -32 -51 -62 -51 -65 0 -4 23 12 51 34 56 44 77 46 38 2 -14
-15 -32 -36 -40 -46 -16 -22 -8 -19 42 16 26 17 27 17 32 -1 3 -14 -5 -23 -32
-36 -20 -9 -71 -41 -114 -71 -91 -64 -97 -60 -73 48 17 75 62 185 72 175 3 -3
-2 -20 -12 -39 -15 -29 -12 -28 26 15 49 56 62 56 28 0z m-1822 -28 c15 -23
15 -27 -1 -51 l-17 -26 -24 38 c-23 39 -30 65 -18 77 10 10 42 -11 60 -38z
m2469 -32 c9 -81 13 -87 14 -20 1 31 5 57 11 57 14 0 23 -65 17 -125 -6 -59
-46 -160 -58 -148 -8 9 -109 210 -109 218 0 17 21 0 39 -31 27 -46 36 -39 20
15 -9 30 -9 45 -1 53 8 8 15 -3 26 -38 l15 -49 0 63 c1 78 17 81 26 5z m-2405
37 c0 -5 -4 -10 -10 -10 -5 0 -10 5 -10 10 0 6 5 10 10 10 6 0 10 -4 10 -10z
m80 -21 c0 -12 -8 -23 -20 -26 -24 -6 -26 -19 -5 -27 12 -4 15 -24 15 -93 -1
-80 -2 -86 -15 -69 -9 12 -16 45 -17 80 -1 57 -2 58 -5 14 -4 -49 -16 -62 -27
-31 -9 23 20 117 47 147 27 31 27 31 27 5z m53 -128 c-1 -57 -4 -106 -8 -109
-20 -20 -31 83 -20 185 11 104 30 54 28 -76z m2009 7 l3 -53 15 49 c21 68 42
74 33 9 -6 -43 -5 -47 10 -35 9 7 19 27 22 43 7 32 35 40 35 9 0 -10 -9 -42
-20 -70 -24 -60 -13 -66 19 -10 36 65 59 44 25 -23 l-17 -32 26 23 c15 15 27
20 31 13 26 -42 -199 -200 -234 -165 -12 12 -26 282 -14 271 5 -5 14 -34 20
-65 11 -56 11 -56 13 -16 1 56 12 104 22 104 4 0 9 -24 11 -52z m-285 -28 c-4
-29 -2 -50 3 -50 6 0 10 10 10 23 0 12 4 28 9 36 14 22 33 2 29 -30 -4 -23 -2
-26 9 -17 8 6 21 24 29 40 22 42 35 24 18 -24 -8 -23 -13 -42 -11 -44 1 -2 18
20 37 49 29 44 35 49 38 30 2 -12 -4 -35 -13 -52 -15 -29 -5 -45 11 -19 5 8
11 2 15 -17 5 -15 5 -33 2 -38 -8 -13 -147 -77 -167 -77 -19 0 -31 23 -62 113
-26 76 -30 102 -14 92 6 -3 10 -15 10 -26 0 -10 5 -19 10 -19 6 0 10 6 10 14
0 20 18 66 26 66 4 0 4 -22 1 -50z m-111 -55 c-7 -29 1 -32 20 -7 12 16 13 15
14 -5 0 -12 5 -25 10 -28 21 -13 8 -50 -33 -94 -24 -26 -46 -53 -49 -61 -8
-24 -17 -7 -29 54 -12 68 -9 128 9 134 6 2 12 -3 12 -12 0 -28 17 -17 24 14 3
17 11 30 17 30 7 0 9 -9 5 -25z m614 -85 c0 -18 -75 -110 -90 -110 -4 0 -10
15 -13 33 -5 28 -1 36 35 69 42 37 68 40 68 8z m-3319 -7 c10 -26 12 -27 20
-8 8 19 8 19 15 -3 5 -17 10 -20 19 -12 10 8 15 8 21 -1 8 -14 -22 -39 -47
-39 -10 0 -21 12 -27 28 -5 15 -13 35 -17 45 -4 9 -4 17 -1 17 4 0 11 -12 17
-27z m2975 -50 l-6 -38 19 23 c23 27 27 27 34 3 5 -20 -15 -44 -64 -75 -14 -8
-61 -20 -105 -24 l-79 -9 -32 36 c-37 40 -39 44 -19 60 11 10 16 8 21 -8 11
-36 28 -24 20 15 -5 28 -3 35 7 32 7 -3 14 -14 16 -26 4 -25 20 -29 28 -8 4
12 12 13 32 5 20 -8 28 -7 34 6 11 18 35 20 41 3 3 -8 12 -3 26 15 30 36 34
34 27 -10z m182 -59 c-14 -14 -33 -24 -42 -22 -13 2 -10 10 15 36 23 24 34 31
42 23 8 -8 4 -18 -15 -37z m-58 9 c-1 -14 -27 -43 -39 -43 -7 0 -6 9 5 25 16
24 34 34 34 18z m-70 -33 c0 -5 -5 -10 -11 -10 -5 0 -7 5 -4 10 3 6 8 10 11
10 2 0 4 -4 4 -10z m-3215 -270 l0 -55 -470 -47 c-259 -26 -478 -47 -489 -45
-24 3 912 206 939 204 17 -2 20 -9 20 -57z m3951 24 c52 -25 76 -71 72 -141
l-3 -58 -67 -3 -68 -3 0 30 c0 32 -22 61 -46 61 -27 0 -61 -46 -72 -97 -6 -27
-14 -90 -18 -141 -6 -76 -4 -95 10 -117 33 -51 116 -19 116 45 0 27 -3 30 -30
30 l-31 0 7 53 c4 28 7 53 8 53 0 1 44 5 97 9 l97 7 -4 -43 c-2 -24 -6 -79
-10 -121 -7 -91 -19 -111 -96 -153 -47 -27 -62 -30 -140 -30 -84 0 -89 1 -118
30 -49 49 -66 141 -52 279 19 192 65 281 160 310 63 20 147 20 188 0z m-416
-71 c0 -72 -42 -558 -48 -564 -4 -4 -42 -9 -84 -13 l-77 -6 -59 183 -58 182
-11 -181 c-5 -100 -13 -186 -17 -193 -4 -6 -34 -11 -72 -11 l-64 0 5 53 c3 28
14 162 25 296 10 134 21 245 23 248 6 5 161 22 166 18 2 -2 27 -79 56 -171 60
-192 60 -192 71 43 l7 142 26 4 c14 2 45 5 69 6 l42 1 0 -37z m-540 -35 c-2
-54 -47 -578 -51 -582 -2 -2 -36 -6 -76 -10 l-71 -7 4 38 c5 43 44 542 44 560
0 11 32 17 118 21 27 2 32 -1 32 -20z m-286 -47 c36 -34 50 -92 42 -174 -7
-75 -26 -130 -58 -164 l-20 -22 23 -95 c12 -53 21 -98 18 -101 -3 -2 -37 -7
-77 -11 -81 -8 -71 -19 -95 106 -12 64 -12 65 -42 61 -43 -4 -45 -7 -45 -55 0
-24 -3 -64 -6 -89 l-6 -45 -72 -4 c-39 -3 -72 -4 -73 -4 -4 3 46 598 50 602 9
10 159 22 244 21 82 -2 94 -5 117 -26z m-446 -63 l-3 -63 -80 -8 c-132 -14
-125 -10 -125 -69 l0 -51 80 6 80 6 0 -47 c0 -26 -4 -53 -9 -60 -4 -7 -40 -16
-80 -21 -82 -8 -91 -16 -91 -80 l0 -44 100 7 100 7 0 -28 c0 -15 -3 -44 -6
-64 l-6 -36 -171 -17 c-93 -9 -172 -14 -175 -12 -6 7 39 589 47 598 5 6 240
34 314 37 l28 1 -3 -62z m-422 -40 c-4 -35 -8 -64 -9 -64 -1 -1 -44 -6 -95
-12 -51 -5 -94 -11 -96 -13 -2 -2 -6 -26 -9 -53 l-5 -48 81 3 81 4 -3 -55 c-1
-30 -4 -57 -6 -59 -3 -2 -38 -7 -80 -11 -42 -4 -77 -9 -79 -11 -2 -2 -6 -29
-9 -59 l-5 -55 76 7 c139 12 127 17 124 -56 l-4 -63 -116 -12 c-64 -6 -145
-14 -179 -18 l-63 -6 5 44 c3 24 14 161 25 304 12 142 22 260 23 261 3 2 284
31 321 33 l29 1 -7 -62z m-446 10 c0 -7 -10 -144 -22 -305 l-22 -291 -29 -6
c-16 -3 -55 -6 -86 -6 l-56 0 -55 173 -55 172 -7 -65 c-4 -36 -10 -117 -13
-181 l-7 -117 -30 -6 c-17 -3 -49 -6 -71 -6 l-40 0 6 58 c3 31 13 163 23 292
10 133 22 240 28 246 6 7 45 15 87 18 l76 7 23 -73 c13 -40 38 -120 55 -177
l32 -105 6 80 c4 43 9 125 13 182 7 114 3 108 89 115 22 2 43 4 48 5 4 1 7 -4
7 -10z m-548 -100 c-11 -183 -43 -543 -49 -549 -5 -4 -39 -9 -77 -11 l-68 -4
6 55 c3 31 12 153 21 271 9 118 18 229 21 247 5 34 15 39 104 42 l45 1 -3 -52z
m-307 8 c34 -22 56 -68 62 -132 7 -61 7 -61 -78 -66 l-56 -4 -11 43 c-11 38
-15 43 -41 43 -42 0 -67 -37 -81 -119 -16 -99 -17 -216 -1 -235 17 -21 69 -21
93 1 10 9 18 30 18 50 0 29 -3 33 -25 33 -23 0 -25 3 -25 49 0 58 -2 57 118
66 l82 7 0 -28 c0 -16 -5 -71 -10 -123 -8 -82 -12 -97 -37 -123 -47 -50 -99
-71 -188 -75 -67 -4 -85 -1 -112 16 -59 37 -68 68 -68 231 0 123 3 156 23 217
27 87 70 135 140 158 58 18 162 14 197 -9z m-431 -83 c-29 -366 -43 -546 -46
-548 -2 -2 -39 -6 -83 -10 l-81 -7 -54 171 c-30 94 -56 168 -59 165 -3 -3 -10
-83 -16 -177 l-10 -172 -68 -5 -67 -5 0 34 c0 35 41 564 44 568 1 1 39 6 85
11 97 10 79 32 142 -174 23 -77 45 -143 49 -147 4 -5 10 47 14 115 4 68 9 146
12 175 7 57 7 57 106 61 l36 2 -4 -57z m-518 -15 c-3 -13 -6 -42 -6 -65 l0
-41 -95 -7 c-52 -4 -97 -10 -99 -14 -2 -3 -7 -28 -11 -55 l-8 -49 82 7 81 6 0
-58 0 -59 -46 -7 c-26 -3 -62 -6 -80 -6 -39 0 -40 -1 -49 -69 l-7 -54 101 7
102 8 -3 -64 -3 -63 -65 -7 c-89 -10 -285 -26 -287 -24 -4 3 45 597 49 602 5
4 254 31 312 33 35 1 38 -1 32 -21z m2727 -559 c28 -34 19 -140 -14 -175 -23
-25 -75 -44 -120 -44 -25 0 -27 -4 -33 -59 -6 -54 -9 -59 -34 -64 -15 -3 -29
-4 -31 -2 -3 4 16 268 25 327 5 35 8 37 47 41 87 9 139 1 160 -24z m-309 -170
c21 -94 36 -172 34 -174 -2 -2 -16 -5 -33 -7 -26 -3 -30 0 -35 27 -5 29 -7 30
-59 30 -53 0 -55 -1 -66 -34 -8 -25 -19 -37 -40 -43 -16 -4 -31 -5 -34 -3 -3
4 62 195 120 353 7 17 16 22 42 22 l34 0 37 -171z m-193 148 c-1 -4 -1 -16 -1
-26 0 -15 -10 -21 -39 -26 -37 -6 -39 -8 -44 -53 -4 -26 -9 -93 -13 -149 l-7
-102 -29 -6 c-16 -4 -31 -5 -33 -3 -1 1 1 48 6 103 4 55 10 121 12 148 l4 47
-38 0 c-36 0 -39 2 -39 29 l0 28 103 10 c113 11 119 11 118 0z m-345 -84 c-3
-32 -8 -92 -11 -133 -3 -41 -8 -97 -11 -123 l-6 -48 -36 3 -35 3 -46 119 c-50
130 -57 130 -60 5 0 -31 -4 -77 -7 -103 -6 -43 -9 -46 -36 -46 -27 0 -29 2
-24 33 3 17 10 97 17 177 6 80 11 146 12 147 1 0 17 3 36 5 l34 3 45 -117 c47
-122 61 -133 62 -48 0 25 3 75 7 113 6 66 6 67 35 67 l30 0 -6 -57z m-349 3
c27 -24 28 -27 28 -123 -1 -112 -13 -158 -54 -197 -53 -50 -155 -45 -180 10
-17 38 -13 181 7 239 21 62 66 95 128 95 31 0 51 -7 71 -24z m3138 -252 c-5
-2 -244 -64 -530 -138 l-520 -133 -8 84 c-5 47 -7 86 -5 89 3 2 225 26 494 53
446 44 596 56 569 45z m-1135 -177 c0 -41 3 -108 6 -149 l7 -75 60 19 c33 10
62 17 64 15 2 -2 -22 -39 -52 -82 -211 -294 -485 -481 -855 -586 -512 -144
-1232 -108 -1660 83 l-66 29 8 77 c7 78 32 169 64 232 40 81 97 170 109 170 7
0 15 7 18 14 4 10 1 13 -9 9 -17 -6 -18 1 -4 28 15 27 37 24 44 -7 5 -20 -2
-40 -35 -90 -23 -35 -47 -81 -55 -102 -15 -43 -18 -132 -4 -132 11 0 61 96 79
153 13 40 20 44 39 25 9 -9 12 -9 12 -1 0 7 -4 15 -10 18 -19 12 -10 22 42 50
42 23 54 26 70 16 15 -9 18 -8 18 9 0 25 27 37 43 21 9 -10 6 -17 -13 -32 -80
-62 -100 -83 -121 -126 -13 -26 -40 -75 -61 -107 -21 -33 -35 -62 -32 -65 8
-7 26 18 90 127 44 75 54 87 74 84 20 -3 22 -2 12 11 -10 12 -3 21 40 55 29
22 66 54 82 71 27 28 46 33 46 11 0 -21 -53 -70 -76 -70 -14 0 -22 -4 -19 -10
11 -17 33 -11 67 19 18 15 39 26 46 24 8 -3 12 7 12 31 0 35 1 36 40 36 l39 0
-67 -63 c-37 -34 -81 -72 -98 -85 -18 -12 -47 -45 -65 -74 -38 -59 -64 -88
-79 -88 -14 0 -12 -17 3 -23 6 -3 2 -6 -10 -6 -25 -1 -31 -16 -10 -24 6 -3 0
-6 -15 -6 -35 -1 -48 -21 -13 -21 25 0 25 0 9 -25 -9 -14 -14 -28 -12 -31 7
-7 89 109 118 166 34 69 40 73 61 54 18 -16 19 -16 19 -1 0 10 -4 17 -10 17
-26 0 -5 34 46 73 38 30 62 43 78 40 24 -5 76 30 64 43 -5 4 -16 0 -26 -9 -10
-10 -25 -17 -33 -17 -16 1 45 60 61 60 18 0 11 -70 -11 -113 -12 -23 -46 -65
-75 -93 -30 -29 -56 -64 -59 -80 -3 -16 -8 -38 -10 -49 -2 -11 -19 -42 -37
-69 -52 -78 -59 -92 -65 -146 -5 -46 -4 -50 16 -50 17 0 21 -6 22 -37 1 -34 2
-35 9 -13 l8 25 2 -25 c1 -20 5 -17 18 20 9 25 26 55 37 67 11 12 28 32 37 46
10 14 28 27 40 29 14 2 28 15 37 33 36 79 83 125 127 125 12 0 9 -9 -10 -43
-22 -37 -24 -45 -12 -58 12 -12 11 -22 -7 -68 -12 -32 -28 -56 -39 -59 -20 -5
-23 -13 -8 -28 7 -7 -2 -25 -30 -56 -22 -25 -40 -49 -40 -52 0 -15 24 -3 47
24 17 21 34 30 55 30 16 0 156 18 311 39 155 22 397 54 537 71 310 38 300 36
300 66 0 45 -31 350 -50 497 -11 82 -17 159 -14 172 5 20 13 23 86 29 44 4 83
4 86 1 8 -8 49 -239 57 -322 l7 -71 -44 -6 c-88 -12 -94 -13 -56 -15 31 -1 35
-4 31 -21 -3 -11 -14 -20 -24 -20 -10 0 -20 -4 -23 -8 -2 -4 7 -8 21 -7 14 0
28 -6 30 -12 3 -9 -8 -13 -36 -13 -23 0 -41 -4 -41 -9 0 -4 22 -6 49 -3 59 5
80 -14 24 -23 -67 -11 -69 -14 -7 -11 34 2 67 0 75 -4 14 -10 2 -14 -91 -30
-53 -9 -52 -9 19 -4 40 3 79 8 87 11 8 3 14 1 14 -5 0 -5 -26 -14 -57 -20
l-58 -11 57 5 c31 3 59 1 62 -4 8 -14 -16 -21 -95 -28 -38 -4 -69 -10 -69 -15
0 -4 12 -7 26 -6 42 3 39 -20 -3 -32 l-38 -10 48 5 c38 4 47 2 47 -10 0 -10
-9 -16 -22 -17 -13 0 -32 -5 -43 -10 -14 -6 -6 -7 28 -3 38 4 47 2 47 -10 0
-9 6 -13 14 -10 11 4 11 12 -1 46 -9 28 -11 44 -4 51 11 11 12 9 31 -53 l10
-35 -4 38 c-5 43 -1 45 30 16 13 -12 28 -18 34 -14 8 5 9 10 2 14 -12 7 -20
47 -9 49 23 5 29 1 17 -13 -11 -13 -8 -15 17 -15 16 0 32 2 35 5 3 3 -37 48
-89 99 -60 61 -93 102 -93 116 0 21 2 20 41 -11 30 -24 43 -29 52 -20 8 8 7
11 -3 11 -8 0 -28 11 -45 25 -44 35 -8 32 42 -4 22 -16 54 -36 71 -45 17 -9
52 -34 77 -56 36 -31 50 -38 60 -30 19 16 -51 78 -102 92 -21 6 -57 23 -80 39
-39 27 -42 33 -48 86 -3 32 -17 125 -31 207 -13 82 -22 152 -19 155 6 6 378
46 453 50 l32 1 0 -73z m984 6 c-158 -420 -349 -722 -620 -983 -375 -361 -862
-567 -1489 -631 -154 -16 -566 -16 -715 0 -826 87 -1413 415 -1810 1013 -42
64 -98 157 -124 207 -46 89 -46 91 -24 91 19 0 30 -12 52 -57 148 -304 432
-627 721 -820 444 -297 1070 -442 1738 -404 722 42 1257 257 1667 671 224 226
408 520 545 870 45 115 42 110 65 110 18 0 18 -3 -6 -67z m-1744 -48 c0 -14
-4 -25 -10 -25 -11 0 -14 33 -3 43 11 11 13 8 13 -18z m-282 8 c-10 -2 -26 -2
-35 0 -10 3 -2 5 17 5 19 0 27 -2 18 -5z m183 -36 c-8 -8 -11 -3 -11 19 1 25
2 27 11 11 8 -14 8 -22 0 -30z m39 23 c0 -11 -4 -20 -10 -20 -5 0 -10 9 -10
20 0 11 5 20 10 20 6 0 10 -9 10 -20z m26 -17 c-11 -11 -19 6 -11 24 8 17 8
17 12 0 3 -10 2 -21 -1 -24z m61 15 c-3 -8 -6 -5 -6 6 -1 11 2 17 5 13 3 -3 4
-12 1 -19z m33 12 c0 -5 -4 -10 -10 -10 -5 0 -10 5 -10 10 0 6 5 10 10 10 6 0
10 -4 10 -10z m-447 -7 c-7 -2 -21 -2 -30 0 -10 3 -4 5 12 5 17 0 24 -2 18 -5z
m227 -18 c0 -8 -4 -17 -10 -20 -6 -4 -10 5 -10 20 0 15 4 24 10 20 6 -3 10
-12 10 -20z m30 5 c0 -11 -4 -20 -10 -20 -5 0 -10 9 -10 20 0 11 5 20 10 20 6
0 10 -9 10 -20z m-347 3 c-13 -2 -33 -2 -45 0 -13 2 -3 4 22 4 25 0 35 -2 23
-4z m207 -18 c0 -22 -4 -25 -40 -25 -28 0 -40 4 -40 14 0 9 7 12 18 9 10 -2
24 3 31 11 19 23 31 20 31 -9z m40 -1 c0 -8 -7 -14 -15 -14 -17 0 -18 2 -9 24
7 18 24 12 24 -10z m30 6 c0 -11 -4 -20 -10 -20 -5 0 -10 9 -10 20 0 11 5 20
10 20 6 0 10 -9 10 -20z m-382 3 c-10 -2 -26 -2 -35 0 -10 3 -2 5 17 5 19 0
27 -2 18 -5z m192 -18 c0 -16 -6 -25 -15 -25 -9 0 -15 9 -15 25 0 16 6 25 15
25 9 0 15 -9 15 -25z m-315 5 c-16 -4 -46 -8 -65 -8 l-35 1 35 7 c19 4 49 7
65 8 l30 0 -30 -8z m230 -16 c0 -10 -8 -20 -17 -22 -18 -3 -26 27 -11 42 12
11 28 0 28 -20z m37 14 c6 -17 -1 -38 -13 -38 -5 0 -9 11 -9 25 0 26 14 34 22
13z m78 -8 c0 -11 -4 -20 -10 -20 -5 0 -10 9 -10 20 0 11 5 20 10 20 6 0 10
-9 10 -20z m-470 1 c-20 -11 -124 -20 -113 -10 4 4 31 10 58 12 28 2 55 4 60
5 6 1 3 -2 -5 -7z m267 -7 c7 -18 -11 -39 -25 -30 -12 7 -4 46 9 46 6 0 12 -7
16 -16z m43 -4 c0 -11 -7 -20 -15 -20 -8 0 -15 9 -15 20 0 11 7 20 15 20 8 0
15 -9 15 -20z m584 -12 c7 -38 0 -44 -66 -52 -60 -8 -68 -4 -68 39 0 32 2 34
38 38 90 9 89 9 96 -25z m-711 16 c8 -8 -3 -34 -14 -34 -5 0 -9 9 -9 20 0 19
11 26 23 14z m37 -8 c0 -8 -4 -18 -10 -21 -5 -3 -10 3 -10 14 0 12 5 21 10 21
6 0 10 -6 10 -14z m-375 -6 c-16 -4 -50 -8 -75 -8 -40 0 -42 1 -15 8 17 4 50
8 75 8 40 0 42 -1 15 -8z m257 -22 c-9 -9 -12 -7 -12 12 0 19 3 21 12 12 9 -9
9 -15 0 -24z m48 28 c0 -15 -14 -35 -21 -30 -15 9 -10 34 6 34 8 0 15 -2 15
-4z m598 -32 l3 -31 -62 -7 c-34 -3 -63 -5 -64 -4 -2 2 -6 17 -9 35 -6 27 -4
32 16 36 13 3 43 4 68 3 43 -1 45 -3 48 -32z m-1028 17 c0 -9 -57 -21 -102
-21 -45 0 -32 16 14 19 23 1 44 4 47 7 8 8 41 4 41 -5z m320 -11 c0 -11 -7
-20 -15 -20 -8 0 -15 9 -15 20 0 11 7 20 15 20 8 0 15 -9 15 -20z m35 11 c3
-5 1 -12 -5 -16 -5 -3 -10 1 -10 9 0 18 6 21 15 7z m525 -26 l0 -35 -50 -1
c-27 -1 -56 -2 -62 -3 -8 -1 -14 13 -16 31 -3 30 -1 32 35 36 95 10 93 10 93
-28z m-685 5 c0 -7 -6 -15 -12 -17 -8 -3 -13 4 -13 17 0 13 5 20 13 18 6 -3
12 -11 12 -18z m46 8 c0 -10 2 -10 6 0 7 17 33 15 33 -3 0 -8 -6 -15 -12 -15
-7 0 -23 -3 -35 -6 -19 -5 -23 -2 -23 15 0 22 29 30 31 9z m-396 -7 c-15 -13
-113 -23 -119 -12 -7 11 21 18 84 20 25 0 40 -3 35 -8z m275 -11 c0 -11 -7
-20 -15 -20 -15 0 -21 21 -8 33 12 13 23 7 23 -13z m40 -1 c0 -5 -4 -9 -10 -9
-5 0 -10 7 -10 16 0 8 5 12 10 9 6 -3 10 -10 10 -16z m576 -4 c4 -14 4 -28 2
-31 -3 -2 -35 -7 -72 -11 l-66 -6 0 31 c0 34 9 39 82 41 43 1 48 -1 54 -24z
m-1026 6 c0 -14 -10 -18 -67 -26 -46 -6 -53 -5 -53 10 0 10 6 15 13 12 6 -2
21 -1 32 4 28 11 75 11 75 0z m350 -12 c0 -5 -7 -9 -15 -9 -15 0 -20 12 -9 23
8 8 24 -1 24 -14z m521 -5 c11 -32 -1 -41 -68 -47 l-63 -5 0 33 c0 29 4 34 28
38 58 9 95 3 103 -19z m-1001 7 c0 -14 -10 -18 -69 -26 -43 -6 -53 -5 -49 6 4
12 28 18 106 27 6 1 12 -2 12 -7z m390 -11 c0 -11 -4 -20 -10 -20 -5 0 -10 9
-10 20 0 11 5 20 10 20 6 0 10 -9 10 -20z m50 5 c0 -8 -7 -15 -15 -15 -8 0
-15 7 -15 15 0 8 7 15 15 15 8 0 15 -7 15 -15z m413 -17 c2 -18 4 -34 3 -34 0
-1 -29 -5 -64 -9 l-63 -7 3 33 c3 31 6 35 43 40 72 11 72 11 78 -23z m1696 -5
c-123 -204 -317 -417 -484 -530 -168 -113 -351 -195 -560 -248 -420 -108 -985
-108 -1399 0 -394 102 -703 305 -927 607 -82 110 -85 118 -57 117 17 0 40 -24
88 -90 87 -120 253 -280 377 -362 165 -110 369 -196 583 -246 394 -93 945 -87
1330 13 413 107 742 338 962 676 63 96 67 100 90 100 19 0 19 -1 -3 -37z
m-2279 0 c0 32 16 36 25 6 5 -14 0 -28 -16 -45 -30 -32 -37 -30 -45 10 -9 49
6 69 22 31 l13 -30 1 28z m60 13 c0 -8 -4 -18 -10 -21 -5 -3 -10 3 -10 14 0
12 5 21 10 21 6 0 10 -6 10 -14z m-456 -33 c9 -59 7 -73 -11 -74 -17 -1 -17
-2 0 -6 9 -2 17 -11 17 -19 0 -8 -8 -15 -17 -15 -17 -1 -17 -2 0 -6 25 -6 21
-32 -5 -37 -13 -3 -32 -7 -43 -9 -11 -3 -3 -5 18 -6 43 -1 42 -20 -1 -22 -27
-1 -27 -1 3 -8 39 -8 20 -22 -55 -38 l-55 -12 48 4 c27 3 47 0 47 -5 0 -6 -8
-11 -17 -11 -17 -1 -17 -2 0 -6 13 -3 15 -11 10 -31 -3 -15 -10 -28 -14 -30
-4 -2 -5 -10 -2 -18 3 -10 -2 -14 -18 -15 l-24 0 23 -10 c29 -11 21 -25 -21
-35 l-32 -8 35 -6 35 -7 -35 -16 c-34 -16 -35 -16 -7 -17 24 0 27 -4 27 -36
l0 -35 -47 26 -48 25 0 88 c0 48 -4 162 -8 254 l-9 167 54 4 c150 10 145 11
152 -30z m306 6 c0 -10 -4 -19 -10 -19 -5 0 -10 12 -10 26 0 14 4 23 10 19 6
-3 10 -15 10 -26z m40 6 c0 -16 -6 -25 -15 -25 -15 0 -21 31 -8 43 13 14 23 6
23 -18z m500 -4 c0 -24 -5 -29 -31 -35 -17 -3 -47 -6 -65 -6 -31 0 -34 3 -34
29 0 33 10 38 83 40 45 1 47 0 47 -28z m884 13 c3 -9 6 -30 6 -49 0 -32 0 -32
-57 -38 -32 -4 -112 -9 -179 -13 l-121 -7 -6 24 c-11 41 -8 69 8 69 10 0 15
-10 15 -30 0 -16 4 -30 8 -30 5 0 7 13 4 30 -3 24 0 30 21 35 49 13 72 3 78
-35 l6 -35 2 36 1 37 88 9 c48 6 94 11 103 12 9 0 20 -6 23 -15z m-1460 -10
c8 -20 -1 -34 -20 -34 -8 0 -14 10 -14 25 0 28 24 34 34 9z m436 -14 c0 -24
-5 -31 -27 -36 -22 -6 -31 -2 -50 22 l-23 29 28 6 c61 14 72 11 72 -21z m-927
-62 c4 -46 10 -157 14 -247 l6 -164 -74 51 c-41 28 -98 72 -126 97 l-53 47 0
81 c0 136 -1 137 -119 138 -59 1 -73 4 -81 20 -8 14 -7 19 2 20 7 0 87 8 178
18 91 10 183 19 206 20 l41 1 6 -82z m411 66 c7 -19 -2 -37 -15 -29 -12 8 -12
45 0 45 5 0 12 -7 15 -16z m36 -4 c0 -11 -4 -20 -10 -20 -5 0 -10 9 -10 20 0
11 5 20 10 20 6 0 10 -9 10 -20z m-141 -12 c-17 -34 -19 -34 -19 -5 0 18 5 27
15 27 13 0 14 -4 4 -22z m1271 -27 l0 -48 -62 -7 c-34 -3 -63 -5 -64 -3 -2 2
-4 23 -6 47 l-3 45 40 6 c95 15 95 14 95 -40z m-1300 13 c0 -8 -4 -12 -10 -9
-5 3 -10 13 -10 21 0 8 5 12 10 9 6 -3 10 -13 10 -21z m1153 -26 c3 -24 4 -44
2 -47 -2 -2 -36 -6 -75 -9 l-70 -5 0 46 c0 51 3 53 91 56 l46 1 6 -42z m-159
16 c3 -9 6 -28 6 -44 0 -24 -5 -28 -37 -34 -21 -3 -53 -6 -71 -6 -33 0 -33 0
-30 43 3 39 5 42 38 48 63 11 88 10 94 -7z m-779 -3 c-14 -13 -113 -26 -100
-13 10 11 42 18 85 21 15 0 20 -3 15 -8z m633 -44 c3 -41 1 -47 -16 -47 -11 0
-40 -3 -66 -6 l-46 -7 0 51 0 51 48 4 c77 6 77 6 80 -46z m-144 17 c3 -9 6
-29 6 -44 0 -26 -4 -30 -37 -35 -81 -13 -83 -13 -83 4 -1 14 -2 14 -11 -1 -5
-10 -19 -18 -29 -18 -19 0 -19 1 -3 36 15 30 18 32 24 17 6 -13 8 -10 8 14 1
36 9 41 72 42 34 1 49 -3 53 -15z m-1335 -18 c7 -8 11 -27 9 -43 l-3 -27 -33
42 -34 42 25 0 c13 0 30 -6 36 -14z m781 4 c-20 -13 -40 -13 -40 0 0 6 12 10
28 10 21 0 24 -2 12 -10z m-155 -10 c-3 -5 -10 -10 -16 -10 -5 0 -9 5 -9 10 0
6 7 10 16 10 8 0 12 -4 9 -10z m1565 -40 l0 -50 -47 0 c-27 0 -65 -3 -85 -6
l-38 -7 0 51 0 51 58 4 c31 2 69 4 85 5 26 2 27 0 27 -48z m135 -7 c3 -32 8
-75 11 -95 6 -43 17 -40 -196 -63 -190 -21 -177 -23 -182 28 -3 23 -2 45 1 48
3 4 39 10 79 14 l72 7 2 -43 1 -44 4 41 c4 47 16 54 90 54 39 0 41 -2 51 -37
l10 -38 1 38 c1 30 5 37 21 37 11 0 20 5 20 10 0 6 -25 10 -55 10 l-55 0 0 45
0 45 59 0 60 0 6 -57z m-2288 -30 c-2 -16 -4 -3 -4 27 0 30 2 43 4 28 2 -16 2
-40 0 -55z m679 42 c-3 -9 -11 -13 -16 -10 -8 5 -7 11 1 21 14 18 24 11 15
-11z m1288 3 c13 -51 8 -67 -26 -72 -70 -12 -191 -26 -219 -26 -28 0 -29 1
-29 50 0 42 3 50 19 50 10 0 39 3 65 6 l46 7 1 -34 1 -34 8 29 c12 38 25 46
81 46 40 0 48 -3 53 -22z m-1914 2 c0 -5 -4 -10 -9 -10 -6 0 -13 5 -16 10 -3
6 1 10 9 10 9 0 16 -4 16 -10z m1629 -72 c1 -25 -3 -38 -12 -38 -19 0 -487
-48 -572 -59 -92 -11 -107 -2 -63 39 27 25 35 25 41 3 3 -12 5 -8 6 9 1 37 24
56 76 64 62 9 73 2 78 -48 3 -42 4 -42 5 10 2 43 5 52 21 52 10 0 38 3 63 6
l45 6 11 -53 11 -54 -3 48 c-2 26 -1 49 3 51 3 2 34 6 68 10 l63 7 7 -43 8
-43 5 45 5 45 60 5 c68 6 73 1 74 -62z m-1629 32 c0 -5 -2 -10 -4 -10 -3 0 -8
5 -11 10 -3 6 -1 10 4 10 6 0 11 -4 11 -10z m582 -42 c-7 -7 -12 -8 -12 -2 0
14 12 26 19 19 2 -3 -1 -11 -7 -17z m-582 -23 c20 -24 6 -28 -15 -5 -10 11
-13 20 -8 20 6 0 16 -7 23 -15z m580 -5 c0 -5 -7 -10 -16 -10 -8 0 -12 5 -9
10 3 6 10 10 16 10 5 0 9 -4 9 -10z m1274 -32 c4 -23 3 -45 -1 -49 -9 -8 -227
-39 -274 -39 -28 0 -29 2 -29 49 l0 48 46 7 c90 12 101 9 110 -26 l8 -33 3 37
c4 40 11 43 94 47 35 1 37 0 43 -41z m-319 -48 l0 -45 -145 -18 c-102 -13
-150 -15 -162 -8 -13 8 -18 6 -23 -8 -8 -26 -31 -45 -39 -32 -8 12 43 73 55
65 5 -3 9 1 9 9 0 32 -61 36 -107 7 l-33 -20 0 29 c0 34 9 38 94 43 l59 3 13
-40 14 -40 -5 38 c-3 33 -1 39 21 47 14 6 43 10 65 10 l39 0 2 -42 c1 -40 1
-41 5 -8 7 61 7 61 75 58 l63 -3 0 -45z m719 -12 c3 -17 4 -33 2 -35 -7 -8
-79 -23 -108 -23 -26 0 -28 3 -28 40 l0 39 58 4 c31 2 60 4 63 5 4 1 9 -12 13
-30z m-1176 -25 c4 -48 5 -47 -101 -58 -45 -4 -58 -2 -54 7 3 7 11 30 18 50
10 32 17 37 48 41 79 9 86 6 89 -40z m1028 2 c3 -20 5 -38 3 -40 -2 -2 -36 -6
-75 -10 l-71 -7 -5 31 c-7 49 6 58 94 60 46 1 47 0 54 -34z m-173 18 c2 -5 7
-24 11 -44 l6 -36 -77 -11 c-43 -6 -78 -10 -79 -9 -1 1 -4 20 -6 42 l-3 40 55
12 c68 14 88 15 93 6z m-163 -62 c0 -22 -3 -42 -7 -44 -5 -3 -38 -8 -75 -12
l-68 -7 0 46 c0 44 0 45 38 49 20 2 54 4 75 5 37 2 37 2 37 -37z m-170 2 c0
-10 3 -28 6 -40 7 -24 -2 -28 -88 -39 l-58 -6 0 45 c0 52 4 54 88 56 43 1 52
-2 52 -16z m-156 -9 c8 -22 7 -74 -1 -74 -5 0 -51 -7 -103 -15 -98 -15 -170
-19 -170 -10 0 3 9 23 20 44 14 29 27 40 51 45 50 10 59 7 59 -16 0 -13 5 -30
10 -38 7 -11 10 -5 10 22 0 41 8 45 106 57 7 0 15 -6 18 -15z m811 -39 l0 -49
-40 -8 c-22 -5 -58 -8 -80 -6 l-40 3 0 45 0 45 65 11 c94 17 95 17 95 -41z
m-1205 20 c0 -45 -92 -105 -161 -105 -43 0 -49 12 -23 48 19 27 33 20 36 -16
0 -16 3 -8 7 18 6 45 6 45 51 51 63 8 90 10 90 4z m1000 -19 c0 -33 17 -43 23
-14 2 13 5 5 6 -18 1 -50 -1 -51 -109 -60 l-80 -7 1 49 c0 37 3 44 9 29 8 -19
9 -19 9 2 1 23 12 28 76 36 64 8 65 8 65 -17z m440 14 c0 -5 -2 -10 -4 -10 -3
0 -8 5 -11 10 -3 6 -1 10 4 10 6 0 11 -4 11 -10z m-616 -51 c13 -65 12 -66
-66 -73 -64 -6 -491 -66 -590 -82 l-38 -7 0 51 c0 28 4 53 9 56 5 3 116 19
247 36 132 16 266 34 299 38 33 5 76 10 96 11 33 1 37 -2 43 -30z m1026 -50
c-19 -17 -71 -55 -116 -85 -74 -50 -80 -58 -76 -84 4 -27 6 -28 31 -19 14 6
43 8 64 5 40 -7 54 1 175 92 17 13 32 20 32 16 0 -5 -36 -35 -80 -67 -58 -43
-82 -67 -90 -92 -20 -61 -90 -96 -120 -60 -10 12 -16 13 -26 4 -21 -17 -18
-24 26 -53 34 -22 44 -25 63 -15 38 20 200 130 245 166 24 20 45 33 48 30 11
-11 -227 -177 -323 -226 -62 -31 -115 -28 -146 9 -22 25 -27 27 -37 15 -7 -9
-8 -15 -2 -15 5 0 25 -14 43 -31 l33 -31 -24 -14 c-40 -22 -97 -18 -124 9 -13
13 -25 30 -28 38 -4 11 -7 12 -20 1 -14 -11 -11 -17 25 -52 23 -21 39 -41 35
-45 -10 -11 -85 -18 -113 -11 -16 4 -32 19 -42 41 -13 27 -19 32 -30 24 -10
-9 -6 -19 23 -51 42 -47 35 -58 -34 -58 -32 0 -49 6 -67 25 -14 13 -25 31 -25
40 0 15 -21 21 -33 9 -4 -4 7 -25 23 -47 17 -23 30 -45 30 -49 0 -13 -104 -8
-122 6 -10 7 -24 27 -31 44 -8 19 -17 28 -24 24 -8 -5 -3 -21 18 -52 26 -39
28 -45 13 -53 -39 -22 -116 12 -134 58 -7 18 -17 20 -106 20 -81 0 -99 3 -99
15 0 14 61 23 233 32 30 1 32 4 32 37 0 20 6 43 13 52 13 17 69 49 87 49 13 0
13 -50 1 -83 -8 -19 -6 -27 5 -31 11 -4 14 4 14 33 0 47 22 75 73 96 l39 16
-4 -57 c-2 -39 1 -58 10 -61 8 -3 12 8 12 39 1 46 10 64 50 91 44 30 53 23 48
-38 -4 -48 -2 -55 13 -55 15 0 17 4 9 24 -17 45 8 94 61 122 26 13 27 12 32
-14 3 -15 3 -39 0 -53 -4 -20 0 -27 15 -31 17 -5 19 -1 14 39 -3 25 0 54 7 67
14 25 65 59 75 49 3 -3 6 -28 6 -55 0 -42 3 -48 20 -48 17 0 19 3 10 19 -5 11
-10 35 -10 53 0 41 22 63 135 138 44 30 100 68 124 87 55 41 68 43 21 2z
m-2899 -22 c24 -19 85 -61 136 -95 51 -34 97 -71 103 -81 13 -25 13 -77 0
-101 -8 -15 -6 -17 10 -13 17 4 20 14 20 54 0 59 16 64 62 19 28 -28 30 -36
26 -80 -4 -42 -2 -50 12 -50 13 0 16 10 16 49 -1 27 2 52 6 56 10 11 63 -22
77 -48 7 -14 12 -43 9 -66 -2 -23 -3 -41 -2 -41 22 0 29 16 26 65 -2 30 0 55
5 55 17 0 72 -40 83 -61 7 -11 10 -38 8 -58 -3 -34 -1 -37 19 -33 19 3 20 8
12 29 -13 35 -11 83 4 83 21 0 75 -38 87 -61 7 -12 10 -36 8 -54 -3 -27 -1
-31 15 -27 12 3 16 10 12 21 -4 9 -9 33 -12 54 -6 43 7 48 57 22 36 -19 50
-43 50 -90 0 -33 2 -35 21 -25 13 8 24 8 32 1 7 -5 56 -13 110 -17 72 -5 97
-10 97 -20 0 -11 -22 -14 -100 -14 -84 0 -100 -3 -100 -15 0 -9 -11 -27 -25
-40 -19 -20 -34 -25 -75 -25 -27 0 -50 4 -50 8 0 5 13 27 30 50 20 29 26 43
18 48 -7 4 -13 3 -15 -2 -12 -34 -32 -60 -53 -71 -31 -16 -96 -17 -105 -2 -4
6 7 29 25 51 25 31 30 42 19 48 -16 10 -29 4 -29 -14 0 -17 -39 -52 -67 -60
-27 -8 -93 3 -93 15 0 5 16 27 35 48 24 26 31 41 23 43 -7 3 -21 -8 -31 -24
-21 -35 -60 -51 -101 -42 -62 13 -64 19 -20 62 35 33 39 40 26 49 -13 8 -21 3
-37 -21 -17 -26 -28 -31 -67 -34 -26 -2 -57 2 -70 9 -22 12 -22 12 20 49 35
31 40 40 28 49 -11 10 -16 8 -21 -9 -9 -29 -61 -53 -99 -46 -49 9 -210 110
-370 231 -11 8 -17 17 -14 20 3 3 27 -12 54 -33 50 -40 174 -125 231 -157 32
-19 32 -19 72 9 34 24 38 31 29 46 -10 15 -14 16 -25 4 -34 -34 -94 -5 -122
56 -12 26 -41 57 -94 96 -42 31 -75 59 -72 62 2 3 37 -20 78 -50 70 -53 76
-56 144 -60 70 -3 72 -3 76 22 3 14 5 25 4 26 -9 3 -179 123 -200 141 -44 35
-16 27 34 -10z m934 3 c-3 -5 -25 -9 -48 -9 -40 1 -40 2 -12 9 44 11 67 11 60
0z m235 -40 c0 -46 -2 -50 -25 -50 -24 0 -24 0 -10 41 27 75 35 77 35 9z
m1796 32 c-8 -14 -167 -125 -171 -120 -3 2 32 32 78 65 77 57 105 74 93 55z
m-2969 -67 c92 -68 114 -98 25 -36 -62 44 -133 104 -117 99 6 -2 47 -30 92
-63z m893 40 c-29 -17 -50 -19 -50 -6 0 10 23 18 55 19 17 1 17 -1 -5 -13z
m2155 -74 c-36 -32 -179 -131 -184 -126 -3 4 1 10 9 15 9 5 49 34 90 64 41 30
79 55 85 56 6 0 6 -3 0 -9z m-3125 -68 c50 -36 88 -68 86 -71 -5 -4 -186 126
-186 134 0 9 14 0 100 -63z"/>
<path d="M3772 6828 c-18 -18 -15 -133 4 -152 34 -35 64 -4 64 67 0 75 -35
118 -68 85z"/>
<path d="M3950 6750 c0 -78 1 -80 24 -80 34 0 49 24 50 83 0 64 -7 77 -45 77
l-29 0 0 -80z"/>
<path d="M4348 6694 c-15 -33 -1 -58 36 -62 14 -2 26 -1 26 3 0 10 -40 85 -45
85 -3 0 -11 -12 -17 -26z"/>
<path d="M4626 6734 c-9 -33 4 -47 35 -42 16 2 25 11 27 27 7 44 -52 58 -62
15z"/>
<path d="M4605 6640 c-8 -37 0 -50 30 -50 46 0 56 62 12 74 -34 9 -35 8 -42
-24z"/>
<path d="M3083 6722 c-9 -6 -7 -25 9 -80 20 -68 23 -73 47 -70 24 3 26 7 26
54 -1 78 -40 123 -82 96z"/>
<path d="M2898 6663 c-16 -4 -17 -7 -3 -41 20 -46 18 -45 49 -31 28 13 32 29
16 60 -10 18 -26 22 -62 12z"/>
<path d="M5114 6548 c-15 -30 -15 -32 2 -45 29 -21 54 -16 65 14 9 24 7 30
-11 45 -30 25 -37 23 -56 -14z"/>
<path d="M4290 6248 c-12 -11 -14 -36 -10 -138 l5 -125 17 123 c18 127 15 163
-12 140z"/>
<path d="M5288 5183 c7 -3 16 -2 19 1 4 3 -2 6 -13 5 -11 0 -14 -3 -6 -6z"/>
<path d="M4766 3453 c-3 -21 -6 -60 -6 -87 l0 -49 43 7 c60 9 79 35 75 105
l-3 56 -51 3 -51 3 -7 -38z"/>
<path d="M4457 2713 c-4 -3 -7 -35 -7 -70 0 -56 2 -64 18 -60 9 3 29 8 44 11
31 7 54 61 44 102 -6 21 -12 24 -50 24 -23 0 -46 -3 -49 -7z"/>
<path d="M4191 2592 c-13 -40 -22 -75 -20 -76 2 -2 19 -1 37 1 36 6 38 15 18
98 l-12 50 -23 -73z"/>
<path d="M3287 2592 c-37 -41 -49 -214 -16 -235 27 -17 69 1 83 36 19 46 29
158 17 190 -8 21 -17 27 -39 27 -16 0 -36 -8 -45 -18z"/>
<path d="M4868 1863 c7 -3 16 -2 19 1 4 3 -2 6 -13 5 -11 0 -14 -3 -6 -6z"/>
<path d="M5006 1844 c-8 -22 -9 -21 25 -33 51 -18 68 -11 24 10 -22 10 -33 19
-25 19 27 0 164 -46 217 -73 29 -15 54 -23 57 -19 2 4 -29 23 -70 42 -41 18
-74 37 -74 41 0 20 23 17 88 -11 39 -17 79 -30 89 -30 24 1 -136 69 -163 70
-13 0 -24 -8 -27 -20 -5 -20 -5 -20 -63 0 -69 24 -70 24 -78 4z"/>
<path d="M4838 1623 c7 -3 16 -2 19 1 4 3 -2 6 -13 5 -11 0 -14 -3 -6 -6z"/>
<path d="M3070 1569 c0 -11 5 -17 10 -14 6 3 10 13 10 21 0 8 -4 14 -10 14 -5
0 -10 -9 -10 -21z"/>
<path d="M3158 1538 c-6 -17 3 -58 11 -58 4 0 7 16 7 35 -1 34 -11 46 -18 23z"/>
<path d="M4825 1470 l-40 -7 35 0 c19 -1 49 3 65 7 27 7 27 8 5 7 -14 0 -43
-3 -65 -7z"/>
<path d="M4285 1389 c-72 -59 -88 -77 -33 -39 43 30 97 80 87 80 -2 0 -27 -18
-54 -41z"/>
<path d="M4234 1384 c-32 -29 -33 -32 -8 -15 29 19 62 51 52 51 -3 0 -22 -16
-44 -36z"/>
<path d="M4733 1413 c9 -2 23 -2 30 0 6 3 -1 5 -18 5 -16 0 -22 -2 -12 -5z"/>
<path d="M4316 1369 c-21 -21 -52 -45 -70 -54 l-31 -16 55 5 c30 3 65 6 78 6
20 0 22 5 22 50 0 28 -3 49 -7 49 -5 -1 -25 -19 -47 -40z m32 -40 c-17 -11
-75 -12 -62 -1 5 5 23 19 39 31 l30 23 3 -22 c2 -13 -2 -27 -10 -31z"/>
<path d="M4663 1403 c9 -2 23 -2 30 0 6 3 -1 5 -18 5 -16 0 -22 -2 -12 -5z"/>
<path d="M4153 1359 c-24 -17 -43 -32 -43 -35 0 -8 60 29 77 49 22 24 15 21
-34 -14z"/>
<path d="M3341 1354 c0 -11 3 -14 6 -6 3 7 2 16 -1 19 -3 4 -6 -2 -5 -13z"/>
<path d="M3798 1352 c-71 -14 -78 -18 -78 -39 0 -13 5 -23 11 -23 6 0 8 8 4
19 -5 16 2 20 58 30 35 6 71 11 80 11 9 0 19 5 22 10 7 12 3 11 -97 -8z"/>
<path d="M4169 1333 c-13 -16 -12 -17 4 -4 16 13 21 21 13 21 -2 0 -10 -8 -17
-17z"/>
<path d="M3613 1303 c9 -2 25 -2 35 0 9 3 1 5 -18 5 -19 0 -27 -2 -17 -5z"/>
<path d="M2893 1883 c9 -2 25 -2 35 0 9 3 1 5 -18 5 -19 0 -27 -2 -17 -5z"/>
<path d="M2858 1833 c6 -2 18 -2 25 0 6 3 1 5 -13 5 -14 0 -19 -2 -12 -5z"/>
<path d="M2858 1513 c7 -3 16 -2 19 1 4 3 -2 6 -13 5 -11 0 -14 -3 -6 -6z"/>
<path d="M4630 1561 c0 -30 4 -41 15 -41 17 0 20 16 4 26 -6 3 -9 15 -6 25 3
10 1 22 -4 25 -5 3 -9 -13 -9 -35z"/>
<path d="M4452 1550 c0 -14 2 -19 5 -12 2 6 2 18 0 25 -3 6 -5 1 -5 -13z"/>
<path d="M4295 1490 c-16 -4 -48 -8 -69 -9 -22 0 -37 -4 -33 -7 9 -9 147 7
147 17 0 10 -2 10 -45 -1z"/>
</g>
</svg>
