<?xml version="1.0" standalone="no"?>
<!DOCTYPE svg PUBLIC "-//W3C//DTD SVG 20010904//EN"
 "http://www.w3.org/TR/2001/REC-SVG-20010904/DTD/svg10.dtd">
<svg version="1.0" xmlns="http://www.w3.org/2000/svg"
 width="500.000000pt" height="500.000000pt" viewBox="0 0 500.000000 500.000000"
 preserveAspectRatio="xMidYMid meet">
<metadata>
Created by potrace 1.11, written by Peter Selinger 2001-2013
</metadata>
<g transform="translate(0.000000,500.000000) scale(0.100000,-0.100000)"
fill="#000000" stroke="none">
<path d="M1775 4904 c-247 -52 -443 -198 -549 -410 -39 -80 -74 -187 -82 -253
-8 -77 -8 -76 -93 -95 -91 -19 -174 -68 -245 -143 -45 -47 -92 -129 -101 -175
-10 -47 -15 -285 -15 -693 0 -489 4 -559 36 -623 28 -57 108 -93 212 -96 l52
-1 0 -1125 0 -1126 45 -47 44 -47 1124 0 1123 0 31 32 c18 18 37 46 42 61 6
15 12 100 13 188 1 88 5 162 8 164 3 2 89 6 191 10 102 3 194 7 206 9 11 3 37
7 58 10 74 12 187 80 262 157 70 72 98 111 140 193 l35 69 0 883 0 882 -29 58
c-71 144 -173 255 -290 317 -89 47 -140 58 -293 64 -108 4 -212 8 -272 12 -15
1 -17 10 -13 61 2 33 6 64 9 69 4 5 36 19 74 31 86 28 143 75 179 148 24 49
28 68 27 142 0 104 -23 160 -90 219 -39 34 -134 81 -164 81 -16 0 -40 44 -40
75 0 81 -93 241 -190 326 -102 89 -191 122 -330 123 -104 0 -130 -4 -207 -33
-60 -22 -57 -24 -101 65 -100 200 -313 361 -539 409 -62 13 -221 18 -268 9z
m2038 -2237 l47 -38 0 -778 0 -777 -38 -37 c-21 -21 -54 -42 -73 -47 -18 -6
-100 -10 -181 -10 l-148 0 0 866 0 865 173 -3 174 -3 46 -38z"/>
</g>
</svg>
